<svg xmlns="http://www.w3.org/2000/svg" viewBox="0 0 69.19 43.32"><defs><style>.cls-1{fill:#fff;}</style></defs><title>Ícone 5</title><g id="Camada_2" data-name="Camada 2"><g id="Camada_1-2" data-name="Camada 1"><path class="cls-1" d="M58.27,35.41h0l0,0c-.07.07-.18,0-.25.07h0a.39.39,0,0,1-.2.13l-.09,0-.23,0-.08,0-.18.06-.09,0-.23,0h-.1c-.08,0-.17,0-.24,0h0c-.08.07-.19,0-.27.08h0l0,0c-.08.06-.19,0-.27.07h0l0,0c-.08.06-.19,0-.27.07h0l0,0c-.09.08-.23,0-.33.07h0a1,1,0,0,1-.3.14l-.11,0c-.08,0-.17-.05-.26,0h0l0,0a1.36,1.36,0,0,1-.3.13l-.1,0a1.67,1.67,0,0,0-.31.05l-.1,0a1.07,1.07,0,0,0-.31.06h-.11c-.1,0-.21-.07-.31,0h-.07c-.1.08-.24,0-.35.07h0l0,0a2.79,2.79,0,0,0-.37.14L52,37a2.63,2.63,0,0,0-.39.06l-.12,0c-.13,0-.26-.08-.39,0h-.06c-.13.06-.28,0-.39.13a.39.39,0,0,1-.18,0c-.13,0-.27-.12-.39,0a.26.26,0,0,1-.17.05.37.37,0,0,0-.39.06.57.57,0,0,1-.18,0,.61.61,0,0,0-.42,0h-.13c-.18.1-.39,0-.57.08h-.07c-.18.1-.4,0-.58.07l-.14,0c-.17.1-.4-.06-.55.11a.4.4,0,0,1-.26,0c-.18,0-.37-.13-.55,0a.4.4,0,0,1-.26,0c-.21,0-.42-.12-.62,0a.4.4,0,0,1-.26.05,1,1,0,0,0-.78,0,.41.41,0,0,1-.27.05,1.66,1.66,0,0,0-.8,0,.28.28,0,0,0-.22,0c-.3.09-.62,0-.92.06h0a.4.4,0,0,1-.34.11,2.31,2.31,0,0,0-1,0,.58.58,0,0,0-.29,0c-.41.1-.83,0-1.23.06a.12.12,0,0,0-.13,0,.41.41,0,0,1-.35.1,4.49,4.49,0,0,0-1.37,0,1.14,1.14,0,0,0-.45,0,.29.29,0,0,1-.13,0,10.23,10.23,0,0,0-1.66,0,1.4,1.4,0,0,0-.54,0c-.66.07-1.33,0-2,0a2.21,2.21,0,0,0-.68,0,8.09,8.09,0,0,0-1.1,0,2.16,2.16,0,0,1-.67,0H25.69a1.13,1.13,0,0,0-.48,0,.42.42,0,0,1-.37-.08,7.45,7.45,0,0,0-1.25,0,17.43,17.43,0,0,0-1.77,0,1.46,1.46,0,0,1-.51,0,1.79,1.79,0,0,0-.61,0c-.54-.1-1.09,0-1.63-.07a.82.82,0,0,0-.38,0,3.57,3.57,0,0,0-1.22,0,.46.46,0,0,1-.41-.1h0c-.3-.08-.61,0-.91-.06a.51.51,0,0,0-.3,0,1.86,1.86,0,0,0-.78,0,.42.42,0,0,1-.44-.08h0A1.15,1.15,0,0,0,14,38a.38.38,0,0,1-.43-.08h0a.84.84,0,0,0-.47,0,8,8,0,0,1-1.3-.13l0,0h0c-.45,0-.9-.07-1.35-.07-.26,0-.5-.15-.76-.15l-.13,0c-.17-.08-.35,0-.51-.07H8.83a4,4,0,0,1-1.56-.23H7.2c-.12-.09-.28,0-.41-.08H6.73a.85.85,0,0,0-.32,0,.18.18,0,0,1-.1,0l0,0h0a.53.53,0,0,0-.33,0,.17.17,0,0,1-.1,0c-.08-.11-.2-.06-.31-.07l-.11,0c-.08-.11-.21,0-.3-.1l0,0h0c-.1-.07-.24,0-.34-.07l0,0h0a.39.39,0,0,0-.26,0l-.11,0c-.07-.11-.21,0-.29-.11H4c-.09-.09-.23,0-.32-.09h0c-.07-.06-.18,0-.25-.07l0,0h0c-.08-.05-.19,0-.27-.07h0c-.07-.08-.18,0-.25-.08h0c-.06-.08-.17,0-.24-.08h0c-.06-.08-.17,0-.24-.08h0c-.06-.08-.18,0-.24-.09h0A.23.23,0,0,0,2,36l-.09,0s-.1-.06-.14-.11h0c-.05,0-.13,0-.17-.08h0s-.12,0-.16-.08h0s-.12,0-.16-.08h0s-.12,0-.16-.08h0c-.05,0-.14,0-.16-.1H1s-.07,0-.1-.07h0s-.13,0-.15-.1h0a.12.12,0,0,1-.1-.08h0a.24.24,0,0,1-.09-.08h0a.19.19,0,0,0-.08,0l0,0L.36,35l0,0-.06-.07v0l0-.08h0c-.08,0-.06-.12-.1-.16h0c-.06,0-.05-.12-.08-.19s0,0,0,0,0-.33,0-.49a.24.24,0,0,1,0-.12c.08-.07.07-.19.13-.27h0s0-.11,0-.18a.12.12,0,0,1,0-.08c.08-.05.12-.15.18-.22h0s0-.12.1-.15h0s0-.06,0-.08l0,0,.05-.07,0,0,.06,0,0,0,.06,0,0,0,.05-.06,0,0,.06,0,0,0,0-.06,0,0,.07,0,0,0,.08,0h0c.05-.09.16-.12.23-.18h0s.05-.06.09-.07h0s0-.06.07-.09l.06-.05.07-.05.08,0a.15.15,0,0,0,.11,0h0a.18.18,0,0,1,.1-.07H2c0-.08.11-.06.16-.1h0c0-.06.12-.05.16-.09h0c0-.05.12,0,.16-.08h0s.06-.06.1-.06h0a.08.08,0,0,1,0-.07l.12-.05.07,0,.12-.05.08,0a.27.27,0,0,0,.12,0h0c0-.05.12,0,.18-.07h0c0-.06.12-.07.17-.1a.16.16,0,0,1,.09,0,.23.23,0,0,0,.14,0h0c0-.06.11,0,.17-.06l.06-.06.16-.09h.09a.18.18,0,0,0,.16,0h0c.06-.08.18,0,.24-.08h0c.06-.08.17,0,.24-.08h0c0-.07.16,0,.21-.1l.08-.05.19-.06h.09c.08,0,.16,0,.23,0h0c.07-.07.18,0,.25-.07h0C5.91,30,6,30,6.11,30h0l0,0c.08-.07.19,0,.27-.07s0,0,0,0,.18,0,.26-.07,0,0,.06,0,.18,0,.25-.07H7a.14.14,0,0,1,.08,0,.57.57,0,0,0,.26,0s0,0,0,0,.23,0,.33-.07h0c.1-.09.24,0,.34-.08a0,0,0,0,0,.06,0c.1-.08.24,0,.35-.07s0,0,.05,0,.24,0,.35-.07,0,0,.05,0,.29,0,.43-.07,0,0,0,0,.29,0,.43-.07,0,0,.05,0a.18.18,0,0,1,.1,0,1,1,0,0,0,.39,0h0c0-.06.1-.05.16-.05a1.29,1.29,0,0,0,.48,0h0a.21.21,0,0,1,.17-.07,1.06,1.06,0,0,0,.5,0,.38.38,0,0,0,.21,0c.3-.1.61,0,.91-.07a8,8,0,0,0,1,0,2.36,2.36,0,0,0,.59,0c.07,0,.17,0,.15.11h0c-.1.1-.24,0-.35.08l-.13,0c-.11.07-.24,0-.35.06h0l0,0c-.12.09-.29,0-.41.08h0l0,0c-.11.07-.24,0-.35.06h0l0,0c-.13.09-.29,0-.41.08h0l0,0c-.09,0-.19,0-.28.06h0l0,0c-.11.08-.24,0-.35.07H11.6c-.1.08-.23,0-.34.08h0l0,0c-.08.06-.18,0-.27.06h0l0,0c-.09.09-.23,0-.32.08h0c-.09.09-.23,0-.32.08h0c-.08.07-.19,0-.27.07H9.92c-.07.07-.18,0-.25.08h0c-.06.07-.17,0-.22.1a.18.18,0,0,1-.09,0,.44.44,0,0,0-.2,0h0l0,0s-.11,0-.15.1l-.08,0a1,1,0,0,0-.16.06H8.64c-.06,0-.12,0-.17,0h0c0,.05-.11,0-.17.07h0a.18.18,0,0,1-.07.05.25.25,0,0,0-.17,0h0c0,.05-.11,0-.17.07h0c0,.05-.11.06-.14.12a.2.2,0,0,1-.08,0l-.13,0s0,0-.08,0a.15.15,0,0,0-.13,0h0l-.1.1-.09,0a1,1,0,0,0-.22.09h0s-.05.07-.07.1l-.07,0a.18.18,0,0,1-.07.05l0,0-.08,0h0c-.14.14-.28.27-.41.41h0a.19.19,0,0,1,0,.08l0,0,0,.09a.59.59,0,0,1,0,.08.75.75,0,0,1-.07.12L6,32.29a.61.61,0,0,0,0,.42H6l.1.08a.18.18,0,0,0,0,.07l.06.06,0,0,.06.06,0,0,.1.08.08,0,.08.05,0,0,.1.11h0s.12,0,.16.08h0s.13,0,.17.08H7c.05,0,.13,0,.17.07h0c0,.05.11,0,.17,0l.09,0c0,.06.1.07.14.11s0,0,.06,0,.19,0,.26.08h0c.07.06.18,0,.24.08h0c.07.05.16,0,.24,0a.09.09,0,0,1,.08,0h0a.29.29,0,0,0,.24,0l.1,0a1,1,0,0,0,.25.06l.09.06c.07.09.21,0,.29.09h0c.1.07.21,0,.31,0a.2.2,0,0,1,.11,0c.07.11.22,0,.3.1a0,0,0,0,0,.06,0c.13.08.3,0,.42.08s0,0,0,0,.24,0,.35.07a0,0,0,0,0,.06,0,.75.75,0,0,0,.33,0,.13.13,0,0,1,.1,0,0,0,0,0,0,0,0c.14.08.3,0,.44.07s0,0,.06,0a.64.64,0,0,0,.41,0,.17.17,0,0,1,.16.08h0c.13.07.27,0,.41,0a.17.17,0,0,1,.16.06h0c.15.09.34,0,.49.07h.13a.75.75,0,0,0,.42,0,.22.22,0,0,1,.17.07h0c.18.09.38,0,.56.07h.14c.19.09.4,0,.59.07h.13a1,1,0,0,0,.49,0,.18.18,0,0,1,.17.06h0a1.49,1.49,0,0,0,.63,0,.2.2,0,0,1,.18.06,0,0,0,0,0,.06,0,2.76,2.76,0,0,0,.64,0,.19.19,0,0,1,.18,0,0,0,0,0,0,.06,0,1.72,1.72,0,0,0,.64,0,.2.2,0,0,1,.18.06c.05,0,.09,0,.13,0a2.25,2.25,0,0,0,.73,0,.23.23,0,0,1,.19.06.12.12,0,0,0,.13,0c.27.1.56,0,.83.07a.28.28,0,0,0,.22,0c.32.1.66,0,1,.07a.58.58,0,0,0,.29,0c.36.09.72,0,1.08.06a1,1,0,0,0,.45,0,.53.53,0,0,0,.28,0h6.48a.67.67,0,0,0,.28,0,4.87,4.87,0,0,0,1,0,.32.32,0,0,1,.14,0c.77,0,1.53,0,2.29,0a1.4,1.4,0,0,0,.54,0,.32.32,0,0,1,.14,0,16.72,16.72,0,0,0,1.73,0,.48.48,0,0,0,.29,0,.31.31,0,0,1,.21,0,11.44,11.44,0,0,0,1.43,0,.67.67,0,0,0,.37,0,.28.28,0,0,1,.2,0,5.26,5.26,0,0,0,1.19,0,.66.66,0,0,0,.37,0c.41-.1.83,0,1.23-.07a.81.81,0,0,0,.38,0c.32-.09.66,0,1-.07a.48.48,0,0,0,.29,0c.32-.09.66,0,1-.07h.13a.23.23,0,0,1,.19-.06,2.68,2.68,0,0,0,.8,0h.14a.13.13,0,0,1,.12,0,3.39,3.39,0,0,0,.71,0,.12.12,0,0,0,.13,0,.2.2,0,0,1,.18-.06,2.24,2.24,0,0,0,.73,0,.26.26,0,0,0,.21,0c.22-.09.46,0,.67-.07,0,0,0,0,0,0a.24.24,0,0,1,.18-.05,2.35,2.35,0,0,0,.65,0,0,0,0,0,0,.06,0,.18.18,0,0,1,.17-.06,1.41,1.41,0,0,0,.58,0,.26.26,0,0,0,.21,0c.19-.09.4,0,.59-.07h.13c.19-.09.4,0,.59-.07h.13c.18-.09.39,0,.57-.07h0a.21.21,0,0,1,.17-.07.91.91,0,0,0,.49,0s0,0,.06,0,.34,0,.51-.07h.13c.15-.09.34,0,.49-.07a.06.06,0,0,0,.07,0c.13-.08.28,0,.41-.07h0a.17.17,0,0,1,.15-.08.67.67,0,0,0,.42,0,0,0,0,0,0,.06,0c.11-.09.27,0,.38-.09a.19.19,0,0,1,.1,0,.65.65,0,0,0,.34,0h0a.17.17,0,0,1,.15-.08.53.53,0,0,0,.35,0,0,0,0,0,0,.06,0c.1-.08.23,0,.34-.07a0,0,0,0,0,.06,0c.1-.08.24,0,.34-.07a0,0,0,0,0,.06,0c.1-.08.24,0,.34-.07a0,0,0,0,0,.06,0c.1-.08.23,0,.33-.07h0c.1-.09.24,0,.35-.08s0,0,.05,0,.19,0,.28-.07,0,0,0,0,.19,0,.27-.07,0,0,0,0,.19,0,.28-.07,0,0,0,0,.18,0,.25-.07h0c.05-.08.17,0,.22-.11l.1,0c.08,0,.17,0,.24,0h0c.06-.07.17,0,.24-.08h0c.06-.08.17,0,.24-.09h0c.06-.07.17,0,.24-.08h0c.05-.05.12,0,.17-.07h0c.06-.09.18,0,.24-.09h0s.12,0,.16-.08h0s.12,0,.17-.08h0c0-.06.12,0,.17-.08h0c0-.06.12,0,.17-.09h0a.3.3,0,0,1,.1-.07.17.17,0,0,1,.06-.06l.07,0,.07,0L63,32l.07,0,.07,0,.08,0,.07,0h0a.12.12,0,0,1,.09-.08h0a5.4,5.4,0,0,0,.41-.42h0l0-.09,0,0a1.33,1.33,0,0,1,0-.19.24.24,0,0,1,.06-.08,1.31,1.31,0,0,0,0-.59h0a.13.13,0,0,1-.06-.07c0-.05,0-.1-.08-.16s0-.06,0-.09a.18.18,0,0,0,0-.16h0a.14.14,0,0,1,0-.15.2.2,0,0,1,.09-.06h.1a.29.29,0,0,1,.16.13h0s.06.05.09.07h0c.14.09.24.21.36.3l.08.06a.35.35,0,0,1,0,.08l0,.05,0,.09h0c.07,0,0,.11.09.16h0s0,.11.08.16h0c.08.06,0,.17.08.24h0a.2.2,0,0,1,.08.14v.11a.19.19,0,0,1-.09.14h0a.55.55,0,0,1-.06.18h0c-.05,0,0,.12-.09.16h0c0,.05,0,.13-.1.16h0s0,.07-.08.09h0a.2.2,0,0,1-.09.09h0l-.08.09h0l-.08.09h0l-.08.09h0l-.08.08h0a.6.6,0,0,1-.08.08h0a.14.14,0,0,1-.09.08h0a.14.14,0,0,1-.09.08h0a.11.11,0,0,1-.09.09v0c0,.08-.11.06-.15.11h0s-.05.06-.09.07h0a.14.14,0,0,1-.1.08h0c0,.07-.11,0-.15.1h0a.18.18,0,0,1-.1.07h0c0,.07-.11.05-.15.1h0a1,1,0,0,1-.25.16h0c0,.06-.12,0-.17.09h0s-.12,0-.16.08h0a.23.23,0,0,1-.1.07h0c0,.07-.11.06-.16.09h0c0,.06-.11.05-.16.09h0c0,.06-.12,0-.17.09h0c-.05.05-.12,0-.17.08h0c0,.05-.12,0-.17.08h0c-.05,0-.12,0-.17.08h0s-.12,0-.17.08h0s-.08,0-.11.07l-.06.07-.12.06-.08,0-.12,0-.08,0-.1.05-.07,0-.12.06-.07,0-.13,0-.08,0-.12,0a.32.32,0,0,1-.09,0l-.12,0h-.09c-.06,0-.12,0-.16,0a.17.17,0,0,1-.06.06.34.34,0,0,1-.12.06l-.09,0-.16.06-.09,0-.12,0-.09,0a1,1,0,0,0-.16.06l-.09,0-.16.05-.08,0-.12,0Z"/><path class="cls-1" d="M38.19,24.61a0,0,0,0,0,0,0,.19.19,0,0,1,.19-.05,2.75,2.75,0,0,0,.64,0h.14c.19-.09.4,0,.59-.07,0,0,0,0,.05,0a.13.13,0,0,1,.1,0c.16,0,.32,0,.47,0h0a.14.14,0,0,1,.16-.05,1.49,1.49,0,0,0,.42,0s0,0,0,0a.15.15,0,0,1,.11,0,.87.87,0,0,0,.39,0s.05,0,.06,0,.28,0,.38-.1l.11,0a.56.56,0,0,0,.34,0,.07.07,0,0,0,.06,0c.08-.08.22,0,.3-.09a.17.17,0,0,1,.1,0,.57.57,0,0,0,.26,0s0,0,.06,0,.18,0,.26-.07,0,0,.06,0,.19,0,.27-.06,0,0,.05,0a.31.31,0,0,1,.32,0h0c.06.07.18,0,.24.08h0s.12,0,.16.09h0a.16.16,0,0,0,.12,0l.08,0a.18.18,0,0,1,.07.05l0,0,.09.1h0s.13,0,.16.1h0s.06,0,.09.07h0s.12,0,.15.09h0s.14,0,.17.09h0a.16.16,0,0,1,.09.07h0c0,.05.12,0,.16.09h0a.16.16,0,0,0,.12,0l.08,0,.08,0,.08,0,.08.05,0,0,.09.11h0c.05,0,.13,0,.16.09h0s.13,0,.16.09h0l.09,0h0l.11.06.07.06s.08,0,.11.07h0c.05.05.13,0,.17.09h0s.13,0,.17.08h0c.05,0,.13,0,.17.08h0s.13,0,.17.08h0s.12,0,.16.07h0c0,.05.12,0,.16.08s.19,0,.23.1h0s.13,0,.17.08h0c.05,0,.13,0,.17.08h0c.05,0,.11,0,.17,0s0,0,.06.05h0c.06,0,.13,0,.17.07h0c.05.05.12,0,.19,0a.21.21,0,0,1,.08.06c0,.08-.06.11-.11.15h0s-.11,0-.17.08h0c-.06.09-.18,0-.24.09h0c-.05,0-.13,0-.19.07h0l0,0s-.12,0-.18.07h0l0,0a.7.7,0,0,1-.19.06h0l0,0c-.07.07-.18,0-.24.07h0c-.07.07-.18,0-.25.08h0c-.08.08-.19,0-.27.08h0l0,0c-.07.06-.18,0-.25.07h0c-.08.08-.19,0-.27.08h0l0,0c-.07.06-.18,0-.24.08h0c-.08.06-.18,0-.26.07h-.07a.73.73,0,0,1-.19.07h0l0,0c-.08.07-.19,0-.27.07h0l0,0c-.07.06-.17,0-.24.07h0c-.07.08-.18,0-.26.08h0l0,0c-.07.06-.18,0-.26.07h0l0,0c-.07.06-.18,0-.26.07h-.06c-.07.06-.18,0-.25.07h0l0,0c-.07.05-.18,0-.25.06h0c-.1.09-.24,0-.34.08h-.06c-.08.06-.19,0-.26.07h0l0,0c-.08.06-.19,0-.27.07h0l0,0c-.1.08-.24,0-.34.07h-.07c-.08.06-.18,0-.27.07h0l0,0c-.1.08-.24,0-.35.07h0l0,0c-.1.08-.24,0-.34.07h0l0,0c-.1.08-.24,0-.35.07h0l0,0c-.12.09-.28,0-.41.08h-.07c-.13.09-.29,0-.41.08h-.07c-.11.07-.24,0-.36.07h-.12c-.14.08-.3,0-.43.07l-.13,0c-.14.07-.3,0-.43.06h-.14c-.16.09-.34,0-.51.07h-.13c-.21.1-.45,0-.66.07h-.14c-.27.1-.56,0-.83.07a.3.3,0,0,0-.21,0,.31.31,0,0,1-.21,0c-.58,0-1.16,0-1.74,0a8.55,8.55,0,0,0-1.24,0,12.17,12.17,0,0,0-1.35,0,1.25,1.25,0,0,1-.43,0,.61.61,0,0,0-.3,0,3.86,3.86,0,0,0-1,0,.23.23,0,0,1-.19-.06H29.2a3.38,3.38,0,0,0-.71,0,.17.17,0,0,1-.12,0h-.14a1.58,1.58,0,0,0-.65,0,.19.19,0,0,1-.17-.07h-.05c-.19-.08-.41,0-.6-.07h-.12c-.17-.08-.35,0-.52-.07H26c-.14-.07-.3,0-.44-.07h-.12c-.14-.07-.31,0-.44-.07l0,0h0a.79.79,0,0,0-.34,0,.2.2,0,0,1-.11,0c-.11-.11-.27,0-.38-.09l0,0h0c-.11-.06-.25,0-.35-.07l0,0h0a.63.63,0,0,0-.27,0,.17.17,0,0,1-.1,0c-.08-.1-.22,0-.3-.1h0c-.09-.09-.23,0-.33-.08l0,0h0c-.09-.05-.2,0-.28-.08h0c-.08-.07-.16,0-.25,0a.25.25,0,0,1-.09,0c-.05-.09-.17,0-.23-.1h0c-.06-.08-.17,0-.24-.08h0c-.06-.08-.17,0-.24-.08l0,0h0a1.18,1.18,0,0,1-.2-.07h0c-.06-.08-.18,0-.24-.09h0c-.06-.07-.18,0-.24-.09h0c-.05,0-.12,0-.17-.08h0c-.06-.07-.18,0-.24-.09h0c-.05,0-.13,0-.17-.09h0c-.05,0-.13,0-.17-.08h0c-.05,0-.13,0-.17-.08h0s-.12,0-.16-.09h0a.21.21,0,0,0-.12,0l-.08,0-.07-.05,0,0-.09-.1h0l-.16-.1-.09,0-.08-.05,0,0c0-.06-.11-.05-.12-.12h0a.14.14,0,0,1-.1-.08h0a.2.2,0,0,1-.09-.09h0a.24.24,0,0,1-.08-.09h0a.24.24,0,0,1-.08-.09h0a.24.24,0,0,1-.08-.09h0a.13.13,0,0,1-.09-.1h0s-.05-.05-.07-.09L18.06,26a.15.15,0,0,1,0-.06l0-.08a.27.27,0,0,0,0-.12h0c-.06,0-.05-.12-.08-.17h0a.1.1,0,0,1-.06-.08.39.39,0,0,0,0-.24.06.06,0,0,0,0-.07.47.47,0,0,1,0-.4.06.06,0,0,0,0-.07c.08-.09,0-.24.09-.33h0c0-.05,0-.13.08-.17h0a.21.21,0,0,0,0-.12L18,24l0-.07,0,0a.31.31,0,0,1,.11-.08h0a.16.16,0,0,1,.08-.1h0a.24.24,0,0,1,.08-.09h0a.3.3,0,0,1,.08-.08h0l.09-.08h0a.3.3,0,0,1,.08-.08h0a.14.14,0,0,1,.09-.08h0c.06-.09.16-.12.24-.18h0a.13.13,0,0,1,.1-.07h0c0-.08.11-.06.15-.1h0a.67.67,0,0,1,.25-.16h0c0-.07.12-.05.17-.09h0c0-.06.12-.05.16-.09h0c0-.05.12,0,.17-.08h0c0-.06.12-.05.17-.09h0c0-.07.12-.05.17-.08h0c.06-.1.18,0,.24-.09h0c0-.05.11-.06.14-.11l.09-.05.18-.05h.09a.36.36,0,0,0,.23,0h0c.1-.09.23,0,.33-.08h0a.15.15,0,0,1,.14-.07l.05,0,0,0a.06.06,0,0,1,0,.09h0c-.06.11-.07.24-.17.32h0l-.07.09a0,0,0,0,0,0,0c0,.06,0,.14-.08.19h0a1.5,1.5,0,0,0,0,.56l.06.07,0,.08,0,.08.06.12.06.07.06.06,0,0a1,1,0,0,0,.15.14h0c.09,0,.16.1.25.13l.16.1h0c.05.05.11,0,.17,0a.18.18,0,0,1,.07.05h0c.06,0,.13,0,.19,0l.09,0c0,.09.16,0,.21.1h0c.09.09.23,0,.32.09h0c.11.07.22,0,.33,0l.1,0c.11.12.27,0,.38.1h.12c.2.08.41,0,.6.07a.41.41,0,0,0,.22,0,11.94,11.94,0,0,0,1.34,0,.28.28,0,0,1,.2,0,.48.48,0,0,0,.29,0c.66.07,1.33,0,2,0a.32.32,0,0,1,.21,0c1.2.06,2.41,0,3.61,0a.23.23,0,0,1,.21-.05,13.14,13.14,0,0,0,1.66,0,.76.76,0,0,0,.3,0c.38-.1.77,0,1.15-.07a.57.57,0,0,0,.29,0c.3-.1.61,0,.91-.07a.38.38,0,0,0,.21,0C37.68,24.58,37.94,24.7,38.19,24.61Z"/><path class="cls-1" d="M37.37,15.22a0,0,0,0,0,.06,0,.2.2,0,0,1,.18-.06,1.77,1.77,0,0,0,.65,0s0,0,.05,0a.2.2,0,0,1,.18,0,1.87,1.87,0,0,0,.58,0l0,0,0,0a.19.19,0,0,1,.18,0,1.83,1.83,0,0,0,.57,0l0,0,0,0a.18.18,0,0,1,.17,0,1.67,1.67,0,0,0,.5,0l0,0,0,0a.22.22,0,0,1,.17-.07.94.94,0,0,0,.5,0h.13c.16-.09.34,0,.49-.07h0a.19.19,0,0,1,.17-.08.79.79,0,0,0,.48,0,.06.06,0,0,0,.07,0c.15-.09.33,0,.49-.07h0c0-.06.1-.06.17-.06a1,1,0,0,0,.41,0s0,0,.06,0,.3,0,.44-.08l0,0,0,0a.13.13,0,0,1,.1,0c.13,0,.27,0,.39,0h0a.17.17,0,0,1,.15-.08.52.52,0,0,0,.35,0s0,0,0,0a.13.13,0,0,1,.1,0,.93.93,0,0,0,.33,0s0,0,.06,0,.29,0,.41-.07a.06.06,0,0,0,.07,0,1.46,1.46,0,0,1,.72,0s0,0,0,0,.15,0,.19.1h0l.09,0,.05,0s0,0,.06.07l0,0c0,.07.14.09.18.16h0l.09,0,0,0,.08.06,0,0c0,.08.12.1.16.18h0s.07,0,.1.08h0a.41.41,0,0,1,.11.07s.11,0,.13.11h0a.18.18,0,0,1,.1.07h0a2,2,0,0,1,.24.16h0s.13,0,.15.1h0c.05,0,.07,0,.1.07h0s.12,0,.16.09h0a.31.31,0,0,0,.13,0l.09,0,.08.05,0,0s.12,0,.14.11h0c.06,0,.13,0,.17.09h0c.06,0,.13,0,.17.08h0c.06,0,.13,0,.18.07h0c.07.07.19,0,.24.09h0c.07.06.18,0,.25.07h0s.14.06.08.15h0a.39.39,0,0,1-.2.08h0l0,0c-.05,0-.12,0-.17.07h0c-.06.09-.17,0-.24.08h0c-.06.08-.17,0-.24.08h0c-.07.08-.18,0-.26.08h-.06c-.07.07-.17,0-.24.08h0c-.07.07-.18,0-.26.07h0l0,0c-.07.06-.17,0-.24.07h0c-.07.07-.18,0-.27.07h-.05c-.07.07-.18,0-.26.07h0l0,0c-.07.06-.18,0-.25.07h0c-.08.07-.19,0-.27.07h0l0,0c-.08.07-.19,0-.27.07h0l0,0c-.08.06-.19,0-.27.06h0c-.08.07-.19,0-.27.07h0c-.08.07-.19,0-.27.07h0c-.08.07-.19,0-.27.07h0l0,0c-.1.09-.24,0-.33.08h0c-.1.09-.24,0-.34.07h-.06c-.09.08-.23,0-.33.08h0l0,0c-.08.05-.18,0-.26.07h0l0,0c-.1.07-.24,0-.34.07h-.06c-.1.08-.24,0-.35.07h0c-.11.08-.24,0-.35.07h0l0,0c-.13.1-.29,0-.42.08h0l0,0c-.13.08-.29,0-.42.07h0l0,0c-.1.07-.24,0-.35.06l-.13,0c-.13.08-.29,0-.42.07H41.2c-.15.1-.34,0-.5.08h-.14c-.14.07-.29,0-.43.07H40c-.16.08-.35,0-.52.07a.11.11,0,0,0-.12,0c-.19.09-.41,0-.6.07a.23.23,0,0,0-.2,0c-.22.09-.46,0-.68.07a.26.26,0,0,0-.21,0c-.32.09-.66,0-1,.07a.51.51,0,0,0-.3,0c-.46.09-.93,0-1.4.07H32c-.54-.1-1.09,0-1.63-.07a1.19,1.19,0,0,0-.46,0,14,14,0,0,0-1.83,0,.24.24,0,0,1-.2-.05.51.51,0,0,0-.3,0c-.35-.1-.71,0-1.06-.07a.28.28,0,0,0-.22,0,4.29,4.29,0,0,0-.8,0,.21.21,0,0,1-.19,0h-.06c-.24-.1-.5,0-.74-.07a.26.26,0,0,0-.21,0c-.19-.09-.4,0-.59-.07h-.14a1.37,1.37,0,0,0-.57,0,.16.16,0,0,1-.17-.07h0a1.44,1.44,0,0,0-.46,0,.15.15,0,0,1-.11,0l0,0,0,0a1.2,1.2,0,0,0-.42,0,.14.14,0,0,1-.16-.05h0c-.13-.08-.28,0-.41-.07l0,0h0c-.12-.09-.28,0-.41-.07l0,0h0c-.13-.09-.29,0-.42-.08h-.06c-.1-.06-.24,0-.34-.07h-.06c-.1-.07-.24,0-.34-.08h-.06c-.1-.06-.24,0-.34-.07h0c-.1-.08-.23,0-.33-.08l0,0h0c-.09,0-.2,0-.28-.07h-.05a.31.31,0,0,0-.19,0,.18.18,0,0,1-.1,0c0-.09-.16,0-.22-.1h0c-.08-.07-.18,0-.25-.06s-.17,0-.24-.1h0c-.07-.07-.19,0-.25-.09h0a.38.38,0,0,0-.18,0,.11.11,0,0,1-.08,0c0-.05-.11-.06-.15-.11h0c-.05,0-.13,0-.17-.08h0s-.12,0-.16-.08h0s-.12,0-.16-.08h0c0-.05-.12,0-.16-.09h0a.16.16,0,0,0-.12,0l-.08,0a.18.18,0,0,1-.07,0l0,0a.23.23,0,0,1-.08-.11h0a.14.14,0,0,1-.09-.08h0a.2.2,0,0,1-.09-.09h0a.34.34,0,0,1-.08-.09h0a.34.34,0,0,1-.08-.09h0a.39.39,0,0,1-.08-.1h0l-.11-.08-.06-.07,0-.07a.28.28,0,0,1,0-.09.25.25,0,0,0,0-.17h0a1.75,1.75,0,0,1,0-.88h0a.23.23,0,0,0,0-.18.31.31,0,0,1,0-.1c.05-.06.06-.15.13-.2h0a.28.28,0,0,0,0-.13.24.24,0,0,1,0-.08l.05-.08,0,0a.43.43,0,0,1,.1-.09h0s0-.13.1-.16h0s0-.07.08-.09h0l0-.07v0l.05-.07,0,0,.06-.05,0,0,.06-.06,0,0,.06-.05,0,0,.08,0h0a.13.13,0,0,1,.1-.09h0c0-.09.15-.12.24-.17h0a1.07,1.07,0,0,1,.25-.16h0a.34.34,0,0,1,.08-.09.18.18,0,0,1,.07-.05l.07,0,.07,0a.42.42,0,0,0,.12,0h0c0-.06.12-.05.17-.08h0c0-.06.12-.05.17-.08h0c0-.06.12-.05.17-.08h0c.06-.09.18,0,.24-.09h0c0-.05.12,0,.17-.07h0c.07-.09.18,0,.25-.09h0c.07-.08.18,0,.25-.09h0c.06-.07.18,0,.23-.1l.09-.05a.65.65,0,0,0,.24-.06h.11a.36.36,0,0,0,.25,0s0,0,0,0a.16.16,0,0,1,.22,0c.08.07,0,.14-.05.2a1.19,1.19,0,0,1-.19.2h0a.12.12,0,0,1-.08.09h0a.27.27,0,0,1-.08.1h0a.71.71,0,0,1-.07.09h0c-.06,0,0,.13-.11.15h0s0,.07-.07.1h0s0,.12-.09.16h0s0,.12-.08.17h0c-.08.09,0,.23-.08.32a.33.33,0,0,0,0,.24c.06.07,0,.18.07.24h0l.09.09L19,14l.05.07v0l0,.07h0a.2.2,0,0,1,.09.09h0a.24.24,0,0,1,.09.08h0a1.25,1.25,0,0,1,.24.16h0c.05,0,.13,0,.16.09h0c.06,0,.13,0,.17.08h0c.06,0,.13,0,.17.08h0c.06,0,.13,0,.18.08h0c.06,0,.13,0,.19,0a.2.2,0,0,1,.08,0c.05.08.16,0,.22.1h0c.08.06.17,0,.26,0l.1,0c.07.11.21,0,.29.1s0,0,.05,0a.49.49,0,0,0,.27,0,.19.19,0,0,1,.1,0c.1.12.24.05.37.07a.11.11,0,0,1,.09,0l0,0h0c.14.07.3,0,.43.06h.14a1,1,0,0,0,.49,0,.2.2,0,0,1,.18.06,0,0,0,0,0,.06,0,2.33,2.33,0,0,0,.79,0,.23.23,0,0,1,.19.06.38.38,0,0,0,.21,0,6.74,6.74,0,0,0,1.27,0,.28.28,0,0,1,.2,0,1.62,1.62,0,0,0,.62,0,24,24,0,0,0,2.94,0,3.54,3.54,0,0,0,.86,0c.51-.09,1,0,1.55-.06a1.14,1.14,0,0,0,.45,0c.43-.1.88,0,1.31-.07a.51.51,0,0,0,.3,0c.35-.1.71,0,1.06-.07a.28.28,0,0,0,.22,0c.29-.09.61,0,.9-.07a.28.28,0,0,0,.22,0C36.82,15.2,37.11,15.32,37.37,15.22Z"/><path class="cls-1" d="M44.7,7.67h-.13c-.16.09-.34,0-.51.07h-.13c-.16.09-.35,0-.51.07h-.13c-.19.1-.4,0-.58.07h0l0,0c-.19.1-.4,0-.58.07h-.15c-.16.08-.34,0-.5.07h-.14c-.19.09-.4,0-.59.07h-.13c-.19.09-.4,0-.59.07h-.13c-.19.09-.4,0-.59.07a.3.3,0,0,0-.21,0c-.19.08-.4,0-.58.06h-.15c-.21.1-.44,0-.66.07h-.14c-.21.1-.45,0-.66.07h-.14c-.24.1-.51,0-.75.07a.38.38,0,0,0-.21,0c-.24.1-.51,0-.75.07a.38.38,0,0,0-.21,0c-.3.1-.61,0-.91.07a.41.41,0,0,0-.22,0c-.32.1-.66,0-1,.07a.61.61,0,0,0-.3,0c-.35.09-.72,0-1.07.06a.92.92,0,0,0-.37,0c-.49.1-1,0-1.47.07a1.63,1.63,0,0,0-.54,0c-.8.07-1.6,0-2.39,0-.44,0-.88,0-1.32,0A.25.25,0,0,1,25,9a1.88,1.88,0,0,0-.53,0,10.94,10.94,0,0,0-1.28,0,1,1,0,0,1-.43,0,1.36,1.36,0,0,0-.45,0,9.46,9.46,0,0,0-1.19,0,.2.2,0,0,1-.13,0,.57.57,0,0,0-.29,0,6.16,6.16,0,0,0-1,0,.21.21,0,0,1-.19,0,.3.3,0,0,0-.21,0,4.39,4.39,0,0,0-.81,0,.22.22,0,0,1-.19,0l0,0h0a4.18,4.18,0,0,0-.79,0,.21.21,0,0,1-.19,0l0,0h0c-.24-.09-.5,0-.74-.07h-.14c-.21-.09-.45,0-.66-.07h-.15c-.21-.09-.44,0-.66-.07h-.13c-.19-.08-.4,0-.59-.07l0,0h0a1,1,0,0,0-.49,0,.22.22,0,0,1-.17-.07h0a1.23,1.23,0,0,0-.47,0,.14.14,0,0,1-.1,0h-.05a1.23,1.23,0,0,0-.43,0c-.06,0-.12,0-.16,0h0c-.13-.08-.29,0-.41-.07h-.07c-.13-.08-.29,0-.42-.07l0,0h0c-.1-.06-.24,0-.35-.07l0,0h0c-.11-.07-.25,0-.35-.08h0c-.1-.08-.24,0-.33-.08h0c-.09,0-.2,0-.28-.07l0,0h0c-.08,0-.19,0-.27-.08h0c-.07-.06-.18,0-.25-.08h0c-.06,0-.14,0-.22,0H9.05l-.18-.05-.09,0c0-.06-.1-.08-.14-.12h0c-.06-.07-.19,0-.24-.09h0c-.05,0-.13,0-.17-.08h0c-.05,0-.14,0-.16-.09h0A.13.13,0,0,1,8,6.87H8c-.08-.06-.18-.09-.24-.17h0a.14.14,0,0,1-.09-.08h0a2.57,2.57,0,0,1-.21-.24.2.2,0,0,1,0-.11c0-.09,0-.19,0-.28h0a.2.2,0,0,0,0-.13.2.2,0,0,1,0-.08s0-.09.09-.11h0a.24.24,0,0,1,.08-.09h0l.08-.09h0l.08-.09h0L8,5.35H8a.24.24,0,0,1,.09-.08h0a.14.14,0,0,1,.1-.08h0a.23.23,0,0,1,.07-.1l.07-.06.08,0,.09,0a.91.91,0,0,1,.17-.09h0c0-.06.12,0,.16-.09h0a.3.3,0,0,1,.08-.08.18.18,0,0,1,.07,0l.06,0,.08,0a.42.42,0,0,0,.12,0h0c0-.06.12,0,.17-.08h0c0-.06.12,0,.17-.09h0c0-.06.12,0,.17-.09h0c0-.06.12-.05.17-.09h0c0-.06.12,0,.17-.09h0c0-.06.12,0,.17-.08h0c.05-.06.12,0,.18-.08h0c.05-.09.16,0,.21-.11s.13,0,.19-.07h0c0-.05.12,0,.17-.07h0c0-.06.11,0,.17-.08h0a.09.09,0,0,1,.06-.06.25.25,0,0,0,.17,0h0c.06-.09.17,0,.23-.09h0c.05,0,.12,0,.18-.07h0c.06-.09.18,0,.24-.09h0c.05-.05.13-.05.19-.07a0,0,0,0,0,.05,0c.05,0,.12,0,.17-.06h0c.06-.09.18,0,.25-.09h0c.06-.09.18,0,.25-.09h0C12.87,3,13,3,13.06,3h0c.06-.08.18,0,.25-.08h0c.07-.08.18,0,.25-.08h0c.05-.07.17,0,.21-.1l.08,0L14,2.58l.09,0a.28.28,0,0,0,.18,0,0,0,0,0,0,.05,0c.07-.07.18,0,.25-.07h0c.06-.07.18,0,.23-.11a.16.16,0,0,1,.09,0c.09,0,.17,0,.25,0h0c0-.07.17,0,.22-.11a.17.17,0,0,1,.1,0c.08,0,.16,0,.24,0h0c.09-.1.23,0,.32-.08h0c.09-.1.23,0,.32-.08h0c.09-.09.23,0,.32-.08h0c.08-.09.22,0,.29-.1a.21.21,0,0,1,.1,0c.09,0,.18,0,.26,0h0a.08.08,0,0,1,.08-.05c.11,0,.22,0,.32,0h0a.13.13,0,0,1,.1,0c.1,0,.21,0,.31,0h0c.1-.09.23,0,.34-.08h0a.16.16,0,0,1,.15-.08.47.47,0,0,0,.33,0h0A.16.16,0,0,1,19,1.38a.78.78,0,0,0,.34,0s0,0,0,0,.29,0,.42-.08h0A.18.18,0,0,1,20,1.2a.75.75,0,0,0,.42,0,0,0,0,0,0,.06,0,.18.18,0,0,1,.1,0,1.12,1.12,0,0,0,.41,0h.13c.16-.09.35,0,.52-.07h0A.24.24,0,0,1,21.81,1c.35.05.7,0,1,0a.1.1,0,0,1,.08.08c-.05.12-.19,0-.26.11h0c-.07.08-.19,0-.27.08h0l0,0c-.07.07-.17,0-.25.08h0c-.08.08-.19,0-.27.08h0l0,0c-.07.07-.18,0-.26.08h0l0,0c-.07.06-.18,0-.24.07h0c-.07.07-.18,0-.26.08h0l0,0c-.07.06-.18,0-.24.07h0c-.07.07-.18,0-.25.08h0c-.08.08-.19,0-.27.07h0l0,0a.66.66,0,0,1-.2.06h0c-.07.07-.18,0-.25.08h0c-.06.08-.17,0-.24.08h0c-.06.08-.17,0-.24.08h0c-.06.08-.17,0-.24.08h0c-.06.08-.17,0-.24.08h0c-.06.08-.17,0-.24.08h0c-.05,0-.13,0-.19.07h0l0,0c-.05,0-.12,0-.17.07h0c-.06.09-.18,0-.25.09h0c-.05,0-.13,0-.19.07h0l0,0c-.05,0-.12,0-.17.07h0c-.05.05-.13.05-.19.08h0l0,0C17.09,3,17,3,17,3h0c-.05,0-.12,0-.17.08h0c-.05.07-.12.06-.18.08h0c0,.1-.17,0-.23.1h0c-.05,0-.12,0-.16.08h0c-.05,0-.12,0-.16.08h0c-.05,0-.12,0-.16.08h0s-.12,0-.16.08h0s-.06.06-.1.07h0c0,.07-.12.05-.17.09h0c0,.06-.11,0-.16.09h0a.16.16,0,0,1-.09.07h0c0,.07-.12,0-.15.1h0s-.06.06-.1.07h0a.14.14,0,0,1-.09.08h0a.11.11,0,0,1-.09.09h0l-.25.25h0a.12.12,0,0,1-.08.09h0a.34.34,0,0,1-.08.09h0c-.05,0,0,.12-.08.16h0a.49.49,0,0,0,0,.41h0a.27.27,0,0,1,.08.07l0,.06.05.06,0,0,.1.06.07,0,.08,0,0,0s.12,0,.14.1h0c.06,0,.13,0,.17.07h0c.06,0,.12,0,.18,0a.13.13,0,0,1,.09,0c0,.08.16,0,.21.1h0c.09.08.23,0,.33.08h0c.1.07.21,0,.31,0a.1.1,0,0,1,.09,0h0c.13.09.28,0,.41.07a0,0,0,0,0,.06,0c.16.09.34,0,.5.07h.13c.16.08.35,0,.51.07h.13a.94.94,0,0,0,.5,0,.21.21,0,0,1,.17.07,0,0,0,0,0,.06,0,2.35,2.35,0,0,0,.65,0,.24.24,0,0,1,.18.05s0,0,.05,0a2.68,2.68,0,0,0,.8,0,.23.23,0,0,1,.19.06h.14c.37.1.76,0,1.14.07a.81.81,0,0,0,.38,0,13.83,13.83,0,0,0,1.58,0,.31.31,0,0,1,.21,0,2.34,2.34,0,0,0,.7,0,.5.5,0,0,0,.27,0H31a.51.51,0,0,0,.27,0,.81.81,0,0,0,.38,0,.28.28,0,0,1,.2,0,5.26,5.26,0,0,0,1.19,0,.77.77,0,0,0,.37,0c.3-.09.62,0,.92-.07a.26.26,0,0,0,.21,0,.23.23,0,0,1,.18,0,2.75,2.75,0,0,0,.81,0,.15.15,0,0,0,.13,0,.21.21,0,0,1,.19,0,5.07,5.07,0,0,0,.87,0,.41.41,0,0,0,.22,0c.27-.09.56,0,.83-.07a.34.34,0,0,0,.22,0c.26-.1.55,0,.82-.07a0,0,0,0,0,.06,0,.2.2,0,0,1,.18-.06,1.94,1.94,0,0,0,.72,0,0,0,0,0,0,.06,0A.24.24,0,0,1,40,6.09a1.27,1.27,0,0,0,.58,0,.23.23,0,0,0,.2,0c.22-.09.45,0,.66-.07h.15c.21-.09.45,0,.66-.07h.14c.21-.09.45,0,.67-.07,0,0,0,0,.05,0a.22.22,0,0,1,.17-.07,1.22,1.22,0,0,0,.57,0H44c.18-.09.39,0,.57-.07h0a.21.21,0,0,1,.17,0,1.82,1.82,0,0,0,.57,0h.14c.16-.09.34,0,.5-.07h.14c.16-.09.35,0,.51-.07h.13c.18-.1.39,0,.57-.07h0a.22.22,0,0,1,.17-.07.75.75,0,0,0,.42,0H48c.16-.09.34,0,.49-.07h0a.2.2,0,0,1,.16-.07.79.79,0,0,0,.43,0h.12c.16-.09.34,0,.5-.07a.06.06,0,0,0,.07,0c.15-.09.34,0,.49-.07a.06.06,0,0,0,.07,0c.13-.08.3,0,.43-.07h.13c.13-.09.28,0,.41-.07h0c0-.07.09-.06.16-.06a1.14,1.14,0,0,0,.41,0,0,0,0,0,0,.06,0c.13-.09.29,0,.41-.07h0a.18.18,0,0,1,.15-.07.64.64,0,0,0,.41,0h0a.12.12,0,0,1,.1,0,1.08,1.08,0,0,0,.4,0,0,0,0,0,0,.06,0c.13-.09.29,0,.43-.07s0,0,.05,0a.15.15,0,0,1,.11,0c.13,0,.21.05.12.2h0c0,.06-.11,0-.15.09h0a.23.23,0,0,1-.1.07h0c0,.07-.11,0-.16.1h0s-.12,0-.15.09h0l-.1.07h0c0,.06-.11,0-.15.09h0a.23.23,0,0,1-.1.07h0c0,.07-.12,0-.16.1h0c0,.06-.11,0-.15.09h0s-.06,0-.1.06h0c0,.06-.12,0-.16.09h0c0,.05-.11,0-.15.09h0l-.1.07h0c0,.06-.12,0-.16.09h0a.18.18,0,0,1-.1.07h0c0,.07-.11.06-.16.1h0c0,.06-.12,0-.15.1h0S51.9,6,51.86,6h0c0,.06-.12,0-.16.09h0s-.12,0-.15.09h0a.71.71,0,0,1-.09.07h0c0,.06-.12,0-.16.09h0s-.06.07-.1.07h0c0,.08-.11.06-.16.1h0s-.12,0-.16.09h0s-.06.06-.1.07h0c0,.07-.11,0-.16.09h0c-.05,0-.12,0-.17.08h0c-.07.08-.19,0-.26.08h0l0,0c-.14.08-.3,0-.43.07h-.14c-.13.08-.29,0-.42.07h0l0,0c-.15.09-.34,0-.49.07h0l0,0c-.13.08-.29,0-.43.07H48c-.13.08-.29,0-.43.07h-.05c-.16.1-.34,0-.5.08h0l0,0c-.16.09-.35,0-.51.07h-.13c-.16.09-.34,0-.5.07h0l0,0c-.15.09-.34,0-.5.07h-.14C45,7.68,44.84,7.6,44.7,7.67Z"/><path class="cls-1" d="M51,42.24h-.14c-.16.08-.34,0-.5.07h-.14c-.17.08-.35,0-.51.07h-.14c-.18.09-.39,0-.58.07h-.14c-.19.08-.4,0-.58.07H48.1c-.21.09-.45,0-.66.07H47.3c-.24.09-.5,0-.74.07h-.14c-.25.09-.51,0-.75.07a.28.28,0,0,0-.22,0c-.27.09-.55,0-.82.07a.28.28,0,0,0-.22,0c-.3.09-.61,0-.9.07a.28.28,0,0,0-.22,0c-.32.1-.65,0-1,.07h0a.38.38,0,0,1-.33.11,2.53,2.53,0,0,0-1.06,0,.12.12,0,0,0-.13,0,.39.39,0,0,1-.34.1,5.23,5.23,0,0,0-1.53,0,2.15,2.15,0,0,0-.62,0,1,1,0,0,1-.43,0H32.79a2.19,2.19,0,0,0-.72,0,.4.4,0,0,1-.41-.1,1.14,1.14,0,0,0-.45,0,4.08,4.08,0,0,0-1.35,0,.49.49,0,0,1-.45-.1l0,0,0,0c-.35-.1-.72,0-1.07-.07A.48.48,0,0,0,28,43a.33.33,0,0,0-.27,0c-.53.14-1-.13-1.57-.07a3.14,3.14,0,0,1-.92-.13H25.1c-.24-.12-.51.08-.74-.08l0,0,0,0c-.19-.09-.4,0-.59-.07h-.14a3.75,3.75,0,0,1-1.15-.15l-.13,0a2.11,2.11,0,0,1-1-.14l-.13,0c-.13-.07-.3,0-.43-.07h-.06c-.13-.08-.29,0-.42-.07l0,0h0c-.13-.09-.3,0-.42-.08h-.06a4.74,4.74,0,0,1-2-.39l0,0h0c-.11-.06-.25,0-.35-.07l0,0h0a1.79,1.79,0,0,1-1-.23h0a3.09,3.09,0,0,1-.65-.16l0,0h0c-.09,0-.2,0-.28-.07l0,0h0a5.17,5.17,0,0,1-1.92-.55h0c-.05,0-.13,0-.16-.09h0a.64.64,0,0,1,.67-.11.6.6,0,0,0,.41.07,8.07,8.07,0,0,1,1.3.13.13.13,0,0,0,.12,0c.22.08.46,0,.68.06a.31.31,0,0,0,.21,0,.37.37,0,0,0,.23,0,5.49,5.49,0,0,1,1.4.12.38.38,0,0,0,.21,0,.7.7,0,0,0,.43,0,10.42,10.42,0,0,1,1.37.13.15.15,0,0,0,.13,0c.27.09.56,0,.83.06a.48.48,0,0,0,.29,0c.33.09.67,0,1,.06a.78.78,0,0,0,.37,0,1.93,1.93,0,0,0,.83,0,.51.51,0,0,1,.49.09s0,0,.05,0a3,3,0,0,0,1,0,.46.46,0,0,1,.44.08.15.15,0,0,0,.13,0,7,7,0,0,0,1.3,0,.4.4,0,0,1,.26,0,.77.77,0,0,0,.37,0,6.59,6.59,0,0,0,1.66,0,.51.51,0,0,1,.45.09.51.51,0,0,0,.3,0,.66.66,0,0,0,.31,0h8.09a.65.65,0,0,0,.31,0,.51.51,0,0,0,.3,0,.41.41,0,0,1,.35-.1,6.37,6.37,0,0,0,1.69,0,.13.13,0,0,0,.12,0,.4.4,0,0,1,.34-.1,3.57,3.57,0,0,0,1.22,0,.15.15,0,0,0,.13,0,.41.41,0,0,1,.33-.11,2,2,0,0,0,.9,0,.7.7,0,0,0,.29,0c.27-.1.56,0,.83-.07h.13l.12-.06a2.18,2.18,0,0,0,.72,0,.38.38,0,0,0,.21,0c.24-.1.5,0,.74-.07h.14c.21-.1.45,0,.66-.07a0,0,0,0,0,.06,0,.24.24,0,0,1,.11-.06c.18,0,.37.1.53-.06a.37.37,0,0,1,.25,0c.16,0,.32.13.47,0a.4.4,0,0,1,.24,0c.16,0,.32.09.47-.05l.18,0a.45.45,0,0,0,.47,0,.57.57,0,0,1,.18,0,.67.67,0,0,0,.42,0l.13,0c.14-.07.3,0,.43-.06l.13,0c.13,0,.28,0,.39-.13l.18,0c.14,0,.27.11.41,0s0,0,.07,0,.28,0,.41-.08,0,0,.07,0,.29,0,.42-.08a0,0,0,0,0,.06,0c.12,0,.25-.08.37-.14l.12,0c.11,0,.22.08.33,0a0,0,0,0,0,.06,0,1.23,1.23,0,0,0,.31-.14.47.47,0,0,1,.17,0c.09,0,.18.07.27,0s0,0,0,0,.24,0,.35-.07,0,0,.05,0a1.14,1.14,0,0,1,.3-.13.29.29,0,0,1,.1,0,1.57,1.57,0,0,0,.3-.05l.1,0,.24-.06.1,0c.09,0,.17.06.25,0s0,0,.06,0,.19,0,.27-.06,0,0,0,0a1.34,1.34,0,0,1,.27-.13l.09,0a2,2,0,0,1,.24,0l.09,0a.57.57,0,0,0,.22,0s0,0,0,0a.48.48,0,0,1,.21-.12l.09,0a1.6,1.6,0,0,1,.23,0l.09,0a.57.57,0,0,0,.22,0h0l0,0c.07-.07.18,0,.25-.07h0a.36.36,0,0,1,.21-.13l.1,0c.09,0,.17.07.25,0h0c.06-.08.17,0,.24-.08h0c.06-.08.17,0,.25-.08h0c.07-.09.18,0,.26-.09a0,0,0,0,0,.06,0s.12,0,.18-.07,0,0,.06,0,.13,0,.19-.07,0,0,0,0,.12,0,.17-.07h0c.06-.09.18,0,.25-.09h0c.06-.08.18,0,.24-.09h0c.06-.08.18,0,.24-.09h0s.12,0,.17-.07h0c.06-.1.18,0,.24-.1h0s.12,0,.17-.07h0c0-.1.17,0,.24-.1h0c.06,0,.13,0,.19-.07a0,0,0,0,0,0,0s.12,0,.16-.07h0c.05,0,.12,0,.17-.08h0c0-.06.11-.05.17-.08h0c0-.06.11-.05.17-.08h0c0-.1.18,0,.24-.1h0c0-.05.11,0,.16-.08h0c0-.06.11,0,.16-.09h0c0-.06.12,0,.16-.09h0c0-.06.12,0,.16-.09h0c0-.06.12,0,.16-.09h0c0-.06.12,0,.17-.09h0c0-.06.12-.05.16-.09h0l.1-.1.09,0a1,1,0,0,0,.23-.08h0c0-.07.11-.06.16-.09h0c0-.06.12,0,.17-.09h0a.53.53,0,0,1,.1-.06l0-.06a.34.34,0,0,1,.06-.06l.08,0a.25.25,0,0,0,.12,0h0l.08-.08.06-.06.07,0,.07,0a.18.18,0,0,0,.11,0h0s.06-.07.1-.07h0c0-.08.11-.06.16-.1h0a.39.39,0,0,1,.08-.1l.07-.06.08,0,.09,0,.16-.1h0a.16.16,0,0,1,.09-.07h0c0-.08.12,0,.15-.11h0l.1-.07h0a1.31,1.31,0,0,1,.24-.17h0a.18.18,0,0,1,.09-.08h0a.85.85,0,0,1,.25-.17h0a.12.12,0,0,1,.14,0,.12.12,0,0,1,0,.17s0,0,0,.05,0,.14-.08.19h0c-.07.06,0,.19-.09.24h0c0,.06,0,.13-.09.17h0s0,.07-.06.1h0s0,.12-.1.15h0s0,.07-.07.1h0c-.06,0,0,.12-.1.15h0a.24.24,0,0,1-.08.09h0l-.08.09h0a1.86,1.86,0,0,1-.26.31h0a.11.11,0,0,1-.09.09h0a.12.12,0,0,1-.08.09h0a.16.16,0,0,1-.09.09h0a.16.16,0,0,1-.09.09h0a.13.13,0,0,1-.09.09h0a.13.13,0,0,1-.1.09h0a.11.11,0,0,1-.09.09h0a1.3,1.3,0,0,1-.31.26h0a.34.34,0,0,1-.09.08h0a.14.14,0,0,1-.1.08h0c0,.09-.16.11-.23.18h0s-.05.06-.09.07h0c-.06.08-.16.11-.23.17h0a.18.18,0,0,1-.1.07h0c0,.07-.11.05-.15.1h0a.23.23,0,0,1-.1.07h0c0,.07-.11,0-.15.1h0A.23.23,0,0,1,66,38h0c0,.08-.11.06-.16.1h0c0,.06-.11,0-.15.09h0a.23.23,0,0,1-.1.07h0c0,.08-.11.06-.17.09h0c0,.06-.11.05-.16.09h0s-.11,0-.15.08h0c0,.05-.12,0-.16.09h0a2.15,2.15,0,0,1-.26.14h0c0,.08-.11.06-.17.09h0c0,.08-.11.06-.17.09h0c0,.11-.18,0-.23.11h0S64,39,64,39h0s-.11,0-.16.08h0s-.12,0-.16.07h0c0,.05-.12,0-.17.08h0s-.12,0-.17.07h0c-.05.1-.18,0-.24.1h0c-.05,0-.12,0-.17.07h0c0,.05-.12,0-.17.08h0c-.06.1-.18,0-.25.09h0a.7.7,0,0,1-.2.08h0l0,0s-.12,0-.17.07h0c-.06.08-.18,0-.24.09h0a1.46,1.46,0,0,1-.19.07h0l0,0a1.46,1.46,0,0,1-.19.07h0l0,0a1.46,1.46,0,0,1-.19.07h0l0,0c-.05,0-.12,0-.18.07h-.06s-.12,0-.18.07h0l0,0c-.06.07-.17,0-.24.08h0c-.06.07-.17,0-.24.07h0c-.07.08-.18,0-.26.08h-.06c-.07.07-.17,0-.24.08h0c-.08.08-.19,0-.27.08h0l0,0c-.07.07-.18,0-.26.07H59c-.08.06-.18,0-.26.07h0l0,0c-.08.06-.19,0-.27.07h0l0,0c-.08.06-.19,0-.28.07h0l0,0c-.1.08-.24,0-.34.07h-.06c-.1.08-.24,0-.34.07h0l0,0c-.09.07-.23,0-.32.07h0l0,0c-.1.07-.23,0-.33.07h0l0,0c-.1.07-.24,0-.34.06h0l0,0c-.11.08-.24,0-.35.07l-.13,0c-.11.06-.24,0-.35.06h0l0,0c-.13.09-.29,0-.42.07h-.06c-.13.09-.29,0-.42.08h0l0,0c-.14.08-.29,0-.43.06h0l0,0c-.14.09-.3,0-.44.07l-.13,0c-.13.08-.29,0-.42.06l-.14,0c-.13.07-.29,0-.42.06l-.14,0c-.13.07-.29,0-.43.06l-.13,0C51.31,42.25,51.13,42.15,51,42.24Z"/><path class="cls-1" d="M65.27,7.52l0,0v0a.53.53,0,0,0,0-.35A.19.19,0,0,1,65.36,7h0a3.2,3.2,0,0,0,0-1.07V5.75c-.08-.13,0-.29-.07-.41a.06.06,0,0,0,0-.07c-.05-.07,0-.17-.09-.23a.1.1,0,0,1,0-.09c0-.08,0-.17,0-.24h0c-.07-.07,0-.18-.08-.24h0s0-.12-.07-.17h0c-.1,0,0-.17-.09-.23h0c-.05-.05,0-.12-.08-.16h0c-.05,0,0-.12-.09-.16h0s-.06-.06-.06-.1h0c-.08,0-.06-.11-.1-.16h0a1,1,0,0,1-.17-.24h0s-.07,0-.07-.09h0c-.08-.06-.12-.16-.21-.22l-.08,0L64,2.84l0,0a.46.46,0,0,0-.07-.07l0,0c0-.11-.16-.15-.23-.25h0a.14.14,0,0,1-.09-.08h0a.81.81,0,0,1-.24-.17h0a.27.27,0,0,1-.12-.06s-.1,0-.14-.09h0C63,2,62.9,2,62.86,2h0s-.13,0-.17-.09h0c-.05,0-.13,0-.17-.08h0c0-.05-.11,0-.17,0l-.09,0c0-.06-.1-.07-.14-.11h0c-.06-.07-.17,0-.24-.08h0c-.07-.06-.16,0-.24,0a.1.1,0,0,1-.08-.05h0c-.09-.07-.18,0-.27,0l-.1-.05c-.1-.1-.26,0-.37-.09l0,0h0c-.16-.08-.35,0-.51-.07h-.13a12.05,12.05,0,0,0-1.9,0,.31.31,0,0,0-.21,0c-.16.08-.35,0-.5.07h-.06c-.15,0-.32.15-.42-.07a.31.31,0,0,1,0-.1.27.27,0,0,1,.08-.07l0,0,.1,0h0c0-.07.11-.05.15-.1h0a.18.18,0,0,1,.1-.07v0c0-.08.11-.06.16-.1h0c0-.07.12-.06.17-.09h0c0-.07.12-.06.17-.09h0c.06-.1.18,0,.24-.1h0a1.53,1.53,0,0,0,.16-.11h.09c.08,0,.16,0,.23,0h0c.07-.07.18,0,.25-.07h0a.09.09,0,0,1,.08,0,.74.74,0,0,0,.26,0s0,0,0,0,.28,0,.39-.11a.2.2,0,0,1,.11,0,.81.81,0,0,0,.41,0s0,0,0,0A.26.26,0,0,1,60.58,0c.61,0,1.22,0,1.83,0a.27.27,0,0,1,.21.05h0a.55.55,0,0,0,.38,0l.11,0c.08.11.2.07.31.08a.14.14,0,0,1,.09.05h0c.08.06.18,0,.25.07s0,0,0,0a.34.34,0,0,0,.2,0l.1,0c0,.09.16,0,.21.11h0a.38.38,0,0,0,.18,0,.09.09,0,0,1,.06.06h0c.06,0,.13,0,.17.07h0a.16.16,0,0,0,.12,0l.08,0L65,.73l.08,0,.12,0,.07,0,.07.05,0,0L65.5,1l.06.07s.08,0,.11.07h0a.23.23,0,0,0,.11,0l.08,0,.06.05,0,0,.1.06.07,0a.18.18,0,0,0,.07,0l0,0,.07,0,.08,0,.06.06,0,0a.39.39,0,0,1,.08.1h0l.09,0,0,0,.08.06,0,0c0,.08.12.11.16.18h0a.18.18,0,0,1,.1.09h0a.24.24,0,0,1,.09.08h0l.07,0h0l.06,0,0,0,.06.06,0,0,.06,0,0,0,.06.06,0,0,0,.06,0,0a.25.25,0,0,0,0,.07h0a.24.24,0,0,1,.08.09h0a.14.14,0,0,1,.08.09h0c.09.05.12.16.18.23h0a.34.34,0,0,1,.08.09h0a.85.85,0,0,1,.17.25h0a1.53,1.53,0,0,1,.16.25h0c.06,0,.05.12.09.16h0s0,.12.08.16h0s0,.12.08.16h0c.05,0,0,.12.08.17h0a.4.4,0,0,1,.07.18h0s0,0,0,.06a.28.28,0,0,0,0,.18h0c.08.07,0,.18.08.25h0c.11.09,0,.24.09.33h0c.11.12,0,.29.08.41h0a.14.14,0,0,1,0,.11,2.21,2.21,0,0,0,0,.63,1.94,1.94,0,0,0,0,.59c-.09.22,0,.45-.07.67,0,0,0,0,0,.05s0,.24-.07.35,0,0,0,.05,0,.19-.08.27h0c-.07.06,0,.17-.07.24s0,0,0,0,0,.14-.08.19h0c-.07.06,0,.18-.09.24h0c0,.05,0,.13-.08.17h0c0,.05,0,.13-.08.17h0s0,.12-.08.16h0s0,.12-.08.16h0s0,.12-.09.16h0c0,.05,0,.13-.09.17h0s0,.06-.06.09h0c-.06,0,0,.12-.1.15h0a1.1,1.1,0,0,1-.17.25h0a1,1,0,0,1-.17.24h0a.39.39,0,0,1-.08.1h0c-.06.07-.09.17-.17.23h0a.24.24,0,0,1-.08.09h0c-.06.08-.09.18-.18.24h0a.14.14,0,0,1-.08.09h0l-.08.09h0l-.08.09h0a1.86,1.86,0,0,1-.26.31h0s0,.07-.09.09h0a.11.11,0,0,1-.09.09h0a.12.12,0,0,1-.08.09h0a.11.11,0,0,1-.08.09h0a.11.11,0,0,1-.08.09h0a.11.11,0,0,1-.08.08h0a.11.11,0,0,1-.08.08h0a.11.11,0,0,1-.08.08h0a.12.12,0,0,1-.09.08h0s0,.08-.09.09h0a.11.11,0,0,1-.09.09h0a1.83,1.83,0,0,1-.39.34h0l-.09.08h0a.14.14,0,0,1-.09.08h0a1.14,1.14,0,0,1-.32.26h0a.16.16,0,0,1-.09.07h0c-.06.08-.16.11-.24.17h0a.24.24,0,0,1-.09.08h0c-.06.08-.16.11-.24.17h0a.16.16,0,0,1-.09.07h0c0,.07-.12,0-.16.1h0a.34.34,0,0,1-.09.08h0a.85.85,0,0,1-.25.17h0a.85.85,0,0,1-.25.17h0c0,.06-.12,0-.15.1h0s-.05.06-.09.07h0c0,.06-.12,0-.16.1h0s0,.06-.1.06h0c0,.08-.11.06-.16.1h0c0,.06-.12.05-.16.1h0s-.05.06-.1.06h0c0,.08-.11.06-.16.1h0c0,.07-.12.05-.16.1h0s-.06.07-.1.07h0c0,.08-.11.06-.17.09h0c0,.07-.11.05-.16.09h0c0,.07-.11.05-.16.09h0c0,.06-.11,0-.16.08h0c0,.06-.12,0-.17.09h0c0,.05-.12,0-.16.09h0c-.05,0-.12,0-.16.08h0s-.12,0-.16.08h0c-.05,0-.12,0-.17.08h0s-.11,0-.16.08h0c0,.06-.11,0-.16.09h0c0,.06-.11,0-.16.08h0c0,.06-.12.05-.17.08h0c0,.06-.12.05-.17.08h0c0,.1-.18,0-.24.1h0c0,.05-.12,0-.17.07h0c0,.06-.12.05-.17.08h0c-.05.1-.18,0-.24.1h0c0,.05-.12,0-.17.07h0c-.06.09-.18,0-.24.09h0c-.05.05-.12,0-.17.07h0c-.06.09-.18,0-.24.09h0c-.05.05-.13,0-.19.07h0l0,0c-.05,0-.12,0-.17.07h0c-.07.09-.18,0-.25.09h0c-.07.08-.18,0-.25.08h0a.48.48,0,0,1-.2.07h0a.49.49,0,0,1-.19.07h0l0,0a.53.53,0,0,1-.19.06h0l0,0a.6.6,0,0,1-.19.06h0c-.06.07-.17,0-.24.08h0c-.06.07-.17,0-.24.08h0c-.07.07-.18,0-.25.08h0c-.07.09-.19,0-.27.08h0l0,0c-.07.06-.18,0-.24.07h0s-.1,0-.15,0-.18.05-.26,0,0-.06,0-.1l.09-.05h0c0-.07.11-.05.15-.1h0s.06-.06.1-.07h0c0-.07.11-.05.15-.09h0a1.32,1.32,0,0,1,.25-.16h0s.05-.06.08-.09l.06-.05.07,0s0,0,.07,0a.24.24,0,0,0,.12,0h0a.72.72,0,0,1,.25-.16h0s.05-.06.07-.09l.07,0,.06,0,.07,0,.07,0,.07,0,.08,0h0c0-.07.12-.05.16-.1h0a.16.16,0,0,1,.09-.07h0c0-.07.12-.05.16-.1h0a.14.14,0,0,1,.1-.08h0c0-.07.11-.05.15-.1h0a.16.16,0,0,1,.09-.07h0c0-.05.06-.06.09-.08l0-.07.08-.05.09,0a.91.91,0,0,1,.17-.09h0a1.56,1.56,0,0,1,.25-.17h0s0-.07.1-.08h0c0-.05.05-.07.07-.1l.07-.06.07-.05h0l.08,0,0,0,0,0c0-.05,0-.07.07-.1l.06-.06.07,0,.09,0s.06-.06.09-.09l.06-.07.07-.05,0,0,.09,0h0c.05-.09.16-.12.24-.18h0l.09-.08h0a.12.12,0,0,1,.09-.08h0c.06-.1.16-.12.24-.18h0a.39.39,0,0,1,.1-.08h0a.14.14,0,0,1,.09-.08h0c0-.09.16-.13.21-.22a.16.16,0,0,1,.06-.08l.07-.06.05,0,.08,0h0a.2.2,0,0,1,.09-.09h0c.06-.08.16-.12.21-.21l.06-.07a.23.23,0,0,1,.07-.07l0,0,.07-.05,0,0,.08,0h0l.08-.08h0a.24.24,0,0,1,.09-.08h0a.24.24,0,0,1,.09-.08h0a.14.14,0,0,1,.09-.08h0a.13.13,0,0,1,.09-.09h0a.11.11,0,0,1,.09-.09h0a.11.11,0,0,1,.09-.09h0a.11.11,0,0,1,.09-.09h0a.11.11,0,0,1,.09-.09h0a.11.11,0,0,1,.09-.09h0a.11.11,0,0,1,.09-.09h0a.11.11,0,0,1,.09-.09h0a.11.11,0,0,1,.08-.09h0a.11.11,0,0,1,.08-.08h0a.2.2,0,0,1,.09-.09h0a.2.2,0,0,1,.09-.09h0a.2.2,0,0,1,.09-.09h0a.22.22,0,0,0,.05-.08l0-.05.06-.08,0,0c.14-.07.22-.21.33-.31h0a.14.14,0,0,1,.08-.1h0a.14.14,0,0,1,.08-.09h0c.07-.07.09-.18.19-.23h0a.11.11,0,0,1,.08-.1h0a.35.35,0,0,1,.07-.12.42.42,0,0,0,.11-.15l0-.09a.56.56,0,0,0,0-.08l0,0a.24.24,0,0,1,.11-.09h0a.18.18,0,0,1,.08-.09h0s0-.13.1-.16h0s0-.07.07-.09h0a.28.28,0,0,0,0-.12.19.19,0,0,1,0-.08l.05-.08,0,0a.43.43,0,0,1,.1-.09h0s0-.13.09-.16h0c0-.06,0-.14.09-.17h0c0-.06,0-.14.09-.17h0a1.68,1.68,0,0,1,.16-.33h0c0-.06,0-.13.08-.18h0c0-.05,0-.12.08-.17h0c.07-.06,0-.18.09-.24h0c0-.05,0-.12.07-.17h0c.06-.07,0-.16,0-.24s0-.06.06-.07h0c0-.07,0-.18.07-.25h0C65.27,7.75,65.18,7.61,65.27,7.52Z"/></g></g></svg>