<svg xmlns="http://www.w3.org/2000/svg" viewBox="0 0 43.86 61.4"><defs><style>.cls-1{fill:none;}.cls-2{fill:#fff;}</style></defs><title>Ícone 3</title><g id="Camada_2" data-name="Camada 2"><g id="Camada_1-2" data-name="Camada 1"><polygon class="cls-1" points="8.31 24.01 17.54 24.01 17.54 15.7 8.77 15.7 8.31 24.01"/><polygon class="cls-2" points="27.24 31.85 17.54 31.85 17.54 44.78 26.31 42.01 27.24 31.85"/><polygon class="cls-2" points="17.54 0 17.54 7.62 34.39 7.62 36.24 20.54 27.93 20.54 27.7 15.7 17.54 15.7 17.54 24.01 36.47 24.01 33.7 48.47 17.54 53.09 17.54 61.4 38.78 55.4 43.86 0 17.54 0"/><polygon class="cls-2" points="8.77 42.01 8.31 36.01 0 36.01 1.39 48.47 17.54 53.09 17.54 44.78 8.77 42.01"/><polygon class="cls-2" points="8.31 24.01 8.77 15.7 17.54 15.7 17.54 7.62 2.08 7.62 0 31.85 17.54 31.85 17.54 24.01 8.31 24.01"/></g></g></svg>