<svg xmlns="http://www.w3.org/2000/svg" viewBox="0 0 77.38 42.27"><defs><style>.cls-1{fill:#fff;}</style></defs><title>Ícone 1</title><g id="Camada_2" data-name="Camada 2"><g id="Camada_1-2" data-name="Camada 1"><path class="cls-1" d="M43.11,0a2.33,2.33,0,0,0-2.18,1,14.43,14.43,0,0,0-1.17,3.51L32,36.61a21.63,21.63,0,0,0-.55,3.21c0,1.64.94,2.45,2.84,2.45A2.62,2.62,0,0,0,36,41.76a3.18,3.18,0,0,0,.9-1.44c.19-.61.42-1.45.68-2.51L45.4,5.66A15.2,15.2,0,0,0,46,2.51,2.34,2.34,0,0,0,45.24.67,3,3,0,0,0,43.11,0Z"/><polygon class="cls-1" points="0 24.73 28.05 36.89 28.05 29 8.51 21.3 28.05 13.78 28.05 5.83 0 17.99 0 24.73"/><polygon class="cls-1" points="49.33 5.94 49.33 13.78 68.93 21.36 49.33 29.06 49.33 36.95 77.38 24.73 77.38 18.04 49.33 5.94"/></g></g></svg>