<svg xmlns="http://www.w3.org/2000/svg" viewBox="0 0 56.86 65.18"><defs><style>.cls-1{fill:#fff;}</style></defs><title>Ícone 6</title><g id="Camada_2" data-name="Camada 2"><g id="Camada_1-2" data-name="Camada 1"><path class="cls-1" d="M56.85,15.85c0-1.07,0-2.13,0-3.2s0-2.2,0-3.3a3.74,3.74,0,0,0-.35-1.61,5.24,5.24,0,0,0-.83-1.2,8.58,8.58,0,0,0-1.55-1.32c-.12-.08-.24-.17-.36-.24s-.47-.29-.7-.41c-.38-.21-.76-.42-1.15-.6s-.91-.39-1.36-.58l-.37-.15-.88-.31-.77-.26-1.05-.31a5.6,5.6,0,0,0-.7-.2l-.33-.08L46,2l-.38-.08-.76-.2-.58-.13-.88-.17-.55-.11c-.15,0-.31-.05-.46-.09s-.4,0-.6-.08L41.29,1,40.69.9,39.28.71l-1-.13-.2,0-.17,0-1-.09L35.58.31,33.87.18c-.32,0-.65,0-1,0S32.28.1,32,.09c-.67,0-1.34,0-2-.06a.45.45,0,0,1-.11,0H27a.5.5,0,0,1-.13,0l-.55,0c-.81,0-1.63,0-2.45.1-.43,0-.87.05-1.3.07L21.29.3c-.25,0-.5,0-.75.07l-1,.08-1,.08h-.05l-.37,0L18,.61l-.66.1-.78.1c-.44.06-.88.14-1.32.21l-.63.08-.12,0L14,1.23c-.18,0-.37.06-.55.09l-.5.12-1.64.35-1,.25-.56.14-.56.19c-.28.08-.57.15-.84.24l-1.46.5c-.26.09-.51.21-.76.31s-.66.27-1,.42c-.55.26-1.09.54-1.61.85a11.49,11.49,0,0,0-1.34.94A7,7,0,0,0,.68,7.23a4,4,0,0,0-.6,1.44A6,6,0,0,0,0,9.61c0,1.07,0,2.14,0,3.21V56a4.4,4.4,0,0,0,.07.89,2.46,2.46,0,0,0,.11.45,3.61,3.61,0,0,0,.36.74,4.82,4.82,0,0,0,.78,1,11.44,11.44,0,0,0,1.08.9c.3.22.63.42,1,.61s.81.43,1.22.64l1,.43c.12.06.24.1.36.15l.75.29.89.32,1.11.34.75.21c.21.06.41.13.62.18l.7.16.33.08c.25.06.48.14.73.19l1.29.26.37.06,1,.19c.17,0,.35,0,.52.09l.59.11,1,.13,1.13.16.63.08.92.09.1,0,.87.1,1.06.08c.16,0,.32,0,.48,0l1.3.11c.4,0,.8,0,1.2.06l2.09.07h1c1.37,0,2.74,0,4.11,0,.53,0,1.06,0,1.59-.06s.9,0,1.35-.07a8.93,8.93,0,0,1,1-.08,17,17,0,0,0,1.74-.14c.33,0,.66,0,1-.08l.75-.08,1.39-.2.87-.1.49-.07.48-.08L42.8,64l.1,0,.6-.12.56-.1.57-.12.82-.16,1-.26.88-.22c.39-.1.77-.22,1.16-.33l1-.31,1-.34c.29-.1.57-.22.85-.34s.56-.22.83-.35.68-.35,1-.53A11.06,11.06,0,0,0,54.48,60a7,7,0,0,0,1.26-1.11,9.68,9.68,0,0,0,.61-.82,3.21,3.21,0,0,0,.44-1.16,4.49,4.49,0,0,0,.06-.73c0-.59,0-1.17,0-1.76,0-1.06,0-2.12,0-3.18s0-2.15,0-3.23,0-2.17,0-3.26,0-2.21,0-3.32,0-2.14,0-3.21,0-2.12,0-3.18,0-2.19,0-3.28,0-2.12,0-3.18,0-2.17,0-3.25,0-2.08,0-3.13,0-2.13,0-3.19S56.85,16.91,56.85,15.85ZM54.3,20.69v2.75c0,.63,0,1.29,0,1.94a.61.61,0,0,1-.11.33,3.64,3.64,0,0,1-.74.93,9,9,0,0,1-1,.76,12.29,12.29,0,0,1-1.56.88c-.32.15-.65.29-1,.43l-.32.14c-.2.08-.44.18-.68.26l-.88.28-.37.12-.49.15-.4.11-.25.07-.22.06-.36.1-.27.07-.21,0-.3.07-.09,0-.24.06-.49.12-.27.05-.27,0-.31.07-.18.05-.33.06-.27,0-.28.05-.27.05-.22,0-.63.11h0l-.68.11-.51.07-.53.06-.53.08-.25,0-.28,0-.65.06-.45.06-.45.05-.22,0h-.24l-.53.05-.7.06-.39,0-.24,0-.64,0-1.38.08h-1l-.52,0-.74,0H26.45c-.24,0-.48,0-.73,0l-.51,0h-.53l-.63,0-.77-.06-.52,0h-.51l-1-.08-.47,0h-.21l-.27,0-.67-.06-.51-.07-.3,0-.31,0-.33,0-.2,0L16.35,31l-1-.15-1.11-.2-1.41-.28-.93-.21L11.25,30l-.14,0-.3-.08L10,29.68l-.65-.2L9.1,29.4l-.19-.06-.63-.21-1-.39c-.36-.14-.73-.29-1.09-.45a12.81,12.81,0,0,1-1.5-.77,8.05,8.05,0,0,1-1.33-1,3.35,3.35,0,0,1-.71-.92,1.11,1.11,0,0,0,0-.13V13.59l.16.11.49.34c.25.16.49.3.73.43l.06,0c.48.25,1,.51,1.48.75s.85.36,1.27.53l.06,0c.5.2.93.36,1.33.5q.33.12.66.21l.36.11.39.13.61.19.48.13.25.06.22.06.18.06.33.08.46.1.57.13.36.09.41.09.77.17,1.06.2.34.06.2,0,.3,0,.48.09.39.05.26,0,.22,0,.2,0h0l.71.11.2,0h.1l.37,0,.65.08a6.2,6.2,0,0,0,.62.06l.51.05.59.07.37.05H22l.46,0c.33,0,.64,0,.94.07a8.54,8.54,0,0,0,1,.07c.25,0,.49,0,.72,0a6.53,6.53,0,0,0,.74,0H27l1.15,0h1.74c.63,0,1.31,0,2.15,0h.25c.38,0,.78,0,1.18-.07l.69,0,.39,0,1-.07,1.25-.13.65-.06.36,0,.71-.07.57-.08.26,0h.06a6,6,0,0,0,1-.14h0l.3,0,.58-.09.44-.06.73-.11L42.8,18,43,18l.1,0,.29-.06.33-.06.64-.13.46-.11.32-.07.36-.08.33-.07.27-.07.08,0,.38-.1,1-.27.73-.23.34-.11.28-.09c.2-.06.41-.12.62-.2s.72-.26,1.13-.43.7-.28,1.08-.46a17.16,17.16,0,0,0,1.56-.81c.38-.23.75-.47,1.1-.73v6.8ZM2.68,8.84A2.82,2.82,0,0,1,3.29,8,7.55,7.55,0,0,1,4.53,7a15.43,15.43,0,0,1,1.35-.77c.39-.2.81-.39,1.23-.57l.5-.2.23-.08.45-.17.8-.28.2-.07.55-.18.33-.09.24-.06.28-.08.3-.09.44-.11.32-.08.13,0,.06,0L13,3.84l.44-.09.52-.1.53-.13.22,0,.42-.07,1-.16.53-.08.57-.08L17.59,3l.32,0c.16,0,.32,0,.49-.06h.06l.4,0,.38,0,.67-.07.45-.05.2,0,.37,0,.73-.06.56,0,.68-.06c.17,0,.34,0,.53,0h.29l.6,0,1.11-.05c.62,0,1.11,0,1.56,0h3.82c.63,0,1.27.05,1.89.08h.06l1,.07.58,0,.25,0h.24l.19,0,.16,0,.23,0,.36,0,.58,0,1.53.15.67.08.32,0H39l.23,0,.5.06.93.13,1,.18.11,0,.39.07.47.09.27,0,.25,0,.08,0,.15,0,.87.19.16,0,.17,0,.85.2.72.18.51.15.3.08.15,0,.18,0,1.48.5.11,0c.23.08.45.15.66.24l1.06.47L50.9,6a3.68,3.68,0,0,1,.49.23c.28.15.61.33.93.54a8.23,8.23,0,0,1,.75.53,3.87,3.87,0,0,1,1,1,1.46,1.46,0,0,1,.15,1.28,2.23,2.23,0,0,1-.26.51,3.2,3.2,0,0,1-.62.71,8.8,8.8,0,0,1-.71.56l0,0a5.8,5.8,0,0,1-.9.56c-.36.19-.76.4-1.16.59-.21.1-.45.19-.69.28l-.14,0-1.26.46-.09,0c-.29.1-.56.2-.83.28l-.6.16-.35.09-.28.08-.31.08-.73.18-1.12.26-.25,0-.26,0-.27.06-.24.05-1.1.2-.43.06-.54.09c-.31.05-.59.1-.86.12s-.37.06-.55.09l-.2,0h0l-.23,0-.56.05-.45.06-.5.06-.94.08-1.5.12-1,.07h0l-1.28.07-.79,0c-.43,0-.89,0-1.34,0s-1.08.05-1.81.05H26.5a14.1,14.1,0,0,0-1.44-.06l-.79,0L23,15.83H22.8l-.94-.05-.76-.07-.46,0-.47,0-.82-.07-.63-.08-.34,0h-.17l-.23,0-.59-.07L17,15.27l-.33,0-.31,0-.28,0-.36-.06L15.39,15l-.32,0-.37-.05-.52-.1-.26-.05-.3-.06-.37-.07-.35-.07-.34-.07-.66-.14-.62-.15L11,14.16l-.31-.08-.81-.2c-.24-.06-.54-.14-.84-.24s-.85-.26-1.27-.41L7.19,13l-.58-.24A11.19,11.19,0,0,1,5,12a7.45,7.45,0,0,1-1.61-1.15A2.77,2.77,0,0,1,2.69,10,1.26,1.26,0,0,1,2.68,8.84ZM54.31,44.5c0,.58,0,1.15,0,1.72v10a.8.8,0,0,1-.11.32A4.18,4.18,0,0,1,52.89,58a9.33,9.33,0,0,1-1.26.78c-.4.2-.78.39-1.14.55a4.09,4.09,0,0,1-.56.23l-.26.11c-.26.1-.51.2-.77.28s-.61.21-.92.3l-.4.13-.68.21-.7.17-.19,0-.74.18-.21.05-.29.06-.17.05-.13,0-.1,0-.8.16-.5.09-.44.07-.4.09-.16,0h0l-.19,0-.42.06-.46.07-.69.11-.95.12-.59.07-.62.08-.25,0h0l-.2,0-.66.06-.54,0-.59.05-.28,0-.31,0-1.91.13h-.43l-.59,0c-.68,0-1.39,0-2.07.06H27.93l-2.77,0-1.23-.06-.4,0-1.29-.07-.67-.05-.33,0-.61,0L20,62.24l-.29,0h-.08L19,62.13,17.51,62l-.84-.12-.46-.07-.26,0-.35,0-.52-.1-.42-.09-.48-.08-.36-.06-.4-.08-.16,0-.18,0-.44-.08-.2-.06-.2-.06L12,61l-.12,0L11,60.71l-.25-.06-.67-.17-.58-.18-.24-.08L9,60.13c-.27-.09-.55-.17-.82-.27a11.91,11.91,0,0,1-1.42-.53l-.53-.24-.47-.2c-.27-.13-.59-.28-.88-.45a9,9,0,0,1-1.36-.94,3.78,3.78,0,0,1-.74-.78,2.25,2.25,0,0,1-.22-.44V44l.06,0a14.23,14.23,0,0,0,1.43,1,15.87,15.87,0,0,0,1.75.89l.15.06c.33.15.67.3,1,.44l.77.27.3.1.14.06.44.14c.27.09.55.17.82.24l.35.1.19.06.43.12.43.11.26.06.09,0,.18.05,1.1.25.28,0,.23,0,.28.06.28.07.32.06.17,0,.39.07.56.09.43.07.47.07.29,0,.42.07.54.07.2,0,.29,0c.23,0,.46.07.7.09l1.77.18.47,0,.42,0,.68.07.54.05h.26l.55,0c.4,0,.79,0,1.17.06a9.56,9.56,0,0,0,1.18.05c.29,0,.56,0,.83,0,.57,0,1.13.05,1.6.05h1.42l.56,0h.34l.89,0h1a3.2,3.2,0,0,0,.52,0,3.7,3.7,0,0,1,.48,0,4.78,4.78,0,0,0,.64,0,6.48,6.48,0,0,1,.65,0l.45,0,.85-.06.48-.05.31,0,.49,0,1-.1.68-.08.33,0,.26,0,.53-.07.47-.07.28,0,.32,0,.36-.06.49-.06.2,0c.24,0,.48-.07.72-.12s.29-.06.42-.09l.41-.09a5.31,5.31,0,0,0,.6-.12l.53-.1.38-.08.15,0,.18,0,.37-.08.53-.14.21,0,.26-.07.64-.17.57-.17.36-.11.25-.07.31-.09.07,0c.21-.06.43-.13.64-.21.4-.14.75-.28,1.09-.42l.3-.12a7.54,7.54,0,0,0,.89-.39l.5-.25c.2-.09.41-.19.62-.31a12.06,12.06,0,0,0,1.52-1Zm-.1-4a3,3,0,0,1-.59.8,8,8,0,0,1-1.12.9c-.3.19-.6.37-.89.53s-.53.27-.81.4-.63.29-.9.4l-.55.2L49,43.9l-.23.08-.3.11c-.21.08-.42.14-.64.21h0l-1,.31-.22.05-.19,0-.15.05h-.05l-.5.12-.51.13-.39.1-.6.14-.28,0-.22,0-.23,0-.12,0-.15,0-.42.08-.71.13-.4.06-.58.1-.26,0-.47.07-.33,0c-.16,0-.33,0-.51.08l-.4,0-.31,0-.59.08-.25,0h0l-.36,0-.79.06-.58.06-.48,0-.63,0-1.09.07-.86,0-.8,0-.39,0-.58,0-2.14,0H26.56l-1.18,0-1.5-.09-.6,0-.52,0-1.34-.08-.68-.07-.37,0h-.18l-.31,0c-.22,0-.43,0-.62-.06a3,3,0,0,0-.39-.05,1.71,1.71,0,0,1-.25,0l-.92-.12h-.14l-1-.15-.71-.12-.43-.07-.23,0-.26,0-.34-.06a1.5,1.5,0,0,0-.29-.06L14,45.48l-.24,0-.34-.07-.26-.06-.2,0-.24-.05-.22,0-.27-.07L12,45.05l-.18,0L11.54,45l-.21-.06L11,44.8l-.65-.16-.45-.14-.2-.06-.22-.07-.57-.19L8.24,44l-.38-.13-.24-.08-.38-.14-.69-.29-.21-.09-.71-.32A11.87,11.87,0,0,1,4,42a6.88,6.88,0,0,1-.77-.66,3.53,3.53,0,0,1-.49-.61.94.94,0,0,1-.15-.5c0-3.21,0-6.49,0-9.65V29.37c.2.15.41.31.64.46s.43.27.63.39l.24.13.12.08.4.23.37.17.28.13c.5.25,1,.45,1.49.64l.4.15c.28.11.56.2.84.28l.35.11.16.06.33.1.75.21.23.07.18.05.52.14.47.11.22.06.21,0,.3.08.45.09.27.05.25,0,.22,0,.22,0,.65.13.24,0c.29,0,.59.11.89.15l.7.1.49.07.42.07.21,0h.11l.29,0,.59.07.38,0,.5.07.67.06.29,0,1.64.14h.11l1.91.09.6,0,1.39.07c.54,0,1.07,0,1.53,0h1.77l2.68,0a5.68,5.68,0,0,0,.59,0l.34,0h.83l1-.07.46,0h.25l2-.16.26,0,.69-.06.57-.08.37,0h.08a1.06,1.06,0,0,0,.24,0l.51-.08.24,0h0a5.68,5.68,0,0,0,1-.13h.06l.28,0,.57-.09.31,0,.36,0,.52-.1.4-.08.5-.11.25,0,.31-.06c.19,0,.37-.08.55-.12l.21,0,.24-.06.6-.13.59-.16.33-.09.28-.07.47-.13.39-.12.21-.07.22-.06.27-.08.15,0,.64-.21,1.15-.42.68-.3.43-.19A13.83,13.83,0,0,0,53.23,30c.4-.25.76-.48,1.07-.72V39.32c0,.3,0,.61,0,.92A.6.6,0,0,1,54.21,40.55Z"/><path class="cls-1" d="M48.17,52.27A1.76,1.76,0,0,0,46.54,54a1.7,1.7,0,0,0,3.4-.14A1.74,1.74,0,0,0,48.17,52.27Z"/><path class="cls-1" d="M48.23,21a1.71,1.71,0,0,0,0,3.41,1.71,1.71,0,1,0,0-3.41Z"/><path class="cls-1" d="M48.31,36.63a1.71,1.71,0,1,0,1.63,1.88A1.71,1.71,0,0,0,48.31,36.63Z"/></g></g></svg>