<svg xmlns="http://www.w3.org/2000/svg" viewBox="0 0 42.62 69.84"><defs><style>.cls-1{fill:#fff;}</style></defs><title>Ícone 7</title><g id="Camada_2" data-name="Camada 2"><g id="Camada_1-2" data-name="Camada 1"><path class="cls-1" d="M6.63,44.09s0,0,0,.07,0,.24-.09.34h0c-.11.12,0,.29-.1.42a.06.06,0,0,0,0,.08c-.13.27,0,.58-.09.85a1.3,1.3,0,0,0,0,.62c.11.28,0,.58.09.86a0,0,0,0,0,0,.07c.12.17,0,.38.1.54s0,.06,0,.09,0,.24.08.36v0l0,0c.09.11,0,.25.09.36v0l0,0c.1.1,0,.24.1.35s0,0,0,.07,0,.23.09.31h0c.09.09,0,.23.1.32H7c.11.09,0,.23.11.33h0c.12.07,0,.22.11.31h0c.11.08,0,.22.11.31h0c.1.08,0,.22.11.31h0c.06.06,0,.15.09.22h0c.13.07,0,.23.12.31h0c.07.07.07.17.1.26v0l0,0c.05.06,0,.16.09.22h0c.08.06.07.15.1.23v0c.09.06.08.17.11.26v0l0,0c.05.06,0,.15.09.21h0c.07.05.05.15.1.22h0c.07,0,.06.15.1.22h0c.09,0,.07.14.11.22h0c.09,0,.08.14.11.22h0c.1,0,.08.14.11.22h0c.15,0,0,.22.14.29h0c.06.06,0,.15.1.2h0a1.2,1.2,0,0,1,.17.34h0c.1,0,.08.14.11.21h0c.1,0,.08.14.11.22h0c.11,0,.08.14.12.21h0c.09,0,.07.15.11.21h0c.08,0,.06.14.11.21h0c.07.05.05.15.11.21h0c.06.05,0,.15.11.2h0a1.52,1.52,0,0,1,.18.33h0c.09,0,.07.15.11.21h0c.08.05.06.15.11.21h0c.07.05,0,.15.11.2h0s.09.07.09.14l0,0c.11,0,.08.14.13.21h0c.08,0,.06.15.12.21h0a1.23,1.23,0,0,1,.19.33h0c.09,0,.06.15.12.21h0c.08,0,0,.15.12.21h0s.08.07.08.13v0c.1,0,.08.15.13.21h0c.08,0,.05.15.12.2h0s.08.08.09.13h0c.09,0,.06.14.12.2h0a1.55,1.55,0,0,1,.2.32h0c.08,0,.05.15.12.2h0s.08.08.09.13h0c.1,0,.07.14.13.2h0s.09.06.09.13h0c.11,0,.08.14.13.2h0a1.36,1.36,0,0,1,.21.32h0c.08,0,.06.15.12.2h0a.29.29,0,0,1,.08.13h0c.09,0,.07.14.13.19h0a.28.28,0,0,1,.09.13h0c.09,0,.06.14.12.2h0a.18.18,0,0,1,.09.13v0c.1,0,.07.15.13.2h0a.18.18,0,0,1,.09.13v0c.1,0,.07.15.13.2h0a.15.15,0,0,1,.09.13h0c.1,0,.08.14.13.2h0a1.77,1.77,0,0,1,.21.32h0a1.4,1.4,0,0,1,.22.32h0s.09.07.1.13h0c.09,0,.06.14.13.19h0s.08.07.09.12h0c.1.08.14.21.22.3h0a.38.38,0,0,1,.1.12h0a.19.19,0,0,1,.1.13h0c.1,0,.07.14.13.19h0a.38.38,0,0,1,.1.12h0a.56.56,0,0,1,.17.3.18.18,0,0,1-.13.16.14.14,0,0,1-.12-.06h0l-.1,0-.05,0-.09-.06,0,0-.08-.09-.05,0-.09-.09-.05-.06c-.36-.47-.86-.81-1.21-1.3h0a.38.38,0,0,1-.11-.11h0a.38.38,0,0,1-.11-.11h0a.23.23,0,0,1-.11-.11h0a.19.19,0,0,1-.11-.12h0a.18.18,0,0,1-.12-.12l0,0a.18.18,0,0,1-.12-.12h0c-.07,0-.11-.05-.12-.12h0c-.21-.18-.37-.4-.58-.56l-.1-.08-.09-.09,0,0a.36.36,0,0,1-.07-.1l0,0a.31.31,0,0,0-.05-.1h0l-.11-.11h0a.23.23,0,0,1-.11-.11h0a.22.22,0,0,1-.11-.12h0a.19.19,0,0,1-.11-.12v0a.15.15,0,0,1-.11-.12h0a.13.13,0,0,1-.11-.12h0a4.21,4.21,0,0,1-.36-.37.39.39,0,0,0-.1-.08l-.1-.07a.08.08,0,0,0,0,0,.36.36,0,0,1-.07-.1l0-.05a.54.54,0,0,0,0-.11h0a.25.25,0,0,1-.11-.12h0A.19.19,0,0,1,10,59.5h0a.13.13,0,0,1-.11-.12h0c-.15-.11-.25-.27-.39-.39l-.09-.1a.75.75,0,0,0-.07-.12h0a.29.29,0,0,1-.1-.12h0a.22.22,0,0,1-.11-.12h0A.14.14,0,0,1,9,58.46H9c-.12-.07-.18-.21-.29-.3l-.09-.09A.41.41,0,0,0,8.59,58h0a.43.43,0,0,1-.11-.12h0a.22.22,0,0,1-.11-.12h0a.14.14,0,0,1-.1-.12h0A2.58,2.58,0,0,1,8,57.3a1,1,0,0,1-.12-.17h0A.25.25,0,0,1,7.77,57h0a.14.14,0,0,1-.1-.12h0c-.1-.05-.12-.15-.2-.22l-.08-.08-.06-.1h0a.25.25,0,0,1-.11-.12h0a.17.17,0,0,1-.1-.12h0a1.85,1.85,0,0,1-.34-.4h0a.38.38,0,0,1-.1-.12h0a.17.17,0,0,1-.1-.13h0c-.09,0-.12-.15-.2-.21l-.08-.09a.47.47,0,0,0,0-.1h0s-.1-.06-.1-.12h0c-.1,0-.13-.15-.2-.22A.3.3,0,0,1,6,54.86l-.06-.11h0a.15.15,0,0,1-.1-.12h0c-.09,0-.12-.15-.2-.22l-.08-.08a.54.54,0,0,0,0-.11h0c-.08-.06-.11-.16-.19-.22l-.08-.09-.05-.1h0c-.05,0-.1-.06-.1-.13v0c-.12-.07-.16-.2-.23-.31h0a.19.19,0,0,1-.1-.13v0c-.11-.08-.15-.21-.23-.31h0s-.09-.07-.1-.13h0c-.11-.07-.15-.2-.22-.31h0a.19.19,0,0,1-.1-.13h0c-.1,0-.07-.14-.14-.19H4a.38.38,0,0,1-.09-.12H4a1,1,0,0,1-.22-.31h0s-.09-.07-.1-.13h0c-.07,0-.08-.08-.11-.12l-.07-.09-.05-.1h0a1.4,1.4,0,0,1-.22-.32h0A1.77,1.77,0,0,1,3,50.81H3a1.81,1.81,0,0,1-.22-.32h0a.15.15,0,0,1-.09-.13h0c-.1,0-.08-.14-.13-.2h0s-.09-.07-.09-.13h0c-.1,0-.08-.14-.12-.21h0c-.08,0-.06-.14-.12-.2h0s-.08-.07-.08-.13h0c-.1,0-.08-.14-.13-.2h0c-.08,0-.06-.15-.12-.21H2A.17.17,0,0,1,1.88,49v0c-.1,0-.08-.15-.13-.21h0c-.08-.05-.06-.15-.11-.22h0c-.07,0-.06-.15-.11-.21h0c-.07,0-.05-.15-.11-.21h0a.91.91,0,0,1-.08-.13L1.29,48l-.08-.13a.17.17,0,0,1,0-.1.17.17,0,0,1,0-.1h0c-.1,0-.08-.14-.11-.22h0c-.12-.05-.11-.18-.16-.27s0-.17-.08-.23h0c-.06-.06,0-.15-.1-.22h0c-.08-.06-.07-.15-.1-.23v0c-.13-.07,0-.23-.13-.31h0C.41,46.18.5,46,.4,46h0a.92.92,0,0,1-.09-.25v0l0,0c-.08-.09,0-.23-.13-.31a.3.3,0,0,1,0-.13,1,1,0,0,0,0-.41.05.05,0,0,0,0-.08c-.12-.28,0-.59-.09-.88l0-.08,0,0a5.18,5.18,0,0,0,0-1c0-.09,0-.18.07-.24h0c.09-.13,0-.31.09-.43l0,0v0c.06-.11,0-.26.1-.36h0c.08-.09,0-.23.09-.32s0,0,0-.06A.75.75,0,0,1,.51,41h0c.1-.08,0-.23.11-.31h0a.35.35,0,0,0,.05-.18.56.56,0,0,1,0-.12c.05-.07.05-.16.13-.22h0c0-.07,0-.17.1-.22h0c0-.06,0-.16.11-.21H1c.05-.07,0-.16.11-.22h0c.06-.06,0-.16.11-.21h0c.05-.06,0-.16.12-.21h0c0-.07,0-.17.12-.21h0a.86.86,0,0,1,.2-.33h0c.05-.06,0-.17.12-.21h0a1.88,1.88,0,0,1,.42-.63h0a.22.22,0,0,1,.09-.12h0c.08-.1.12-.23.23-.31h0s.06-.08.09-.12h0c.07,0,0-.17.14-.19h0a.19.19,0,0,1,.1-.13h0c.07-.11.1-.24.23-.3H3a.16.16,0,0,1,.11-.13h0a.38.38,0,0,1,.1-.12h0c.08-.1.1-.24.23-.3h0c0-.07,0-.1.1-.12h0a.22.22,0,0,1,.11-.12h0a3,3,0,0,1,.44-.51h0a.15.15,0,0,1,.11-.12h0a.19.19,0,0,1,.1-.12h0a.38.38,0,0,1,.11-.11h0A4.85,4.85,0,0,1,5,34.37H5c0-.07,0-.1.12-.12h0a.18.18,0,0,1,.12-.12l0,0a.18.18,0,0,1,.12-.12h0A.14.14,0,0,1,5.4,34h0a.19.19,0,0,1,.11-.12h0a.2.2,0,0,1,.11-.11h0a.23.23,0,0,1,.12-.12h0a.2.2,0,0,1,.11-.11h0a.19.19,0,0,1,.12-.11h0A.19.19,0,0,1,6,33.32H6a.19.19,0,0,1,.12-.11h0a.17.17,0,0,1,.12-.11h0A.15.15,0,0,1,6.34,33h0a.18.18,0,0,1,.12-.12v0a.13.13,0,0,1,.12-.12h0a.15.15,0,0,1,.12-.11h0a.11.11,0,0,1,.12-.11h0a.1.1,0,0,1,.11-.11h0a6.7,6.7,0,0,1,1-1h0a.29.29,0,0,1,.12-.1H8a.15.15,0,0,1,.12-.11h0a.15.15,0,0,1,.12-.11h0c0-.07.05-.11.12-.11h0a3.53,3.53,0,0,1,.61-.55h0A.41.41,0,0,1,9,30.52H9a.22.22,0,0,1,.12-.11h0a.14.14,0,0,1,.12-.1h0a2.38,2.38,0,0,1,.51-.44h0a.38.38,0,0,1,.12-.1h0s.06-.1.12-.11h0a.15.15,0,0,1,.12-.11v0a2,2,0,0,1,.51-.44h0a.25.25,0,0,1,.12-.11h0a.17.17,0,0,1,.12-.1h0c0-.07.05-.11.12-.11h0a2.16,2.16,0,0,1,.51-.44h0a.25.25,0,0,1,.12-.11h0a.15.15,0,0,1,.12-.11v0a1.49,1.49,0,0,1,.41-.34h0a.38.38,0,0,1,.12-.1h0a.22.22,0,0,1,.12-.11h0a2.71,2.71,0,0,1,.52-.43h0a.25.25,0,0,1,.12-.11h0a3,3,0,0,1,.52-.43h0a.25.25,0,0,1,.12-.11h0a.14.14,0,0,1,.13-.1h0a1.49,1.49,0,0,1,.41-.34h0a.25.25,0,0,1,.12-.11h0a.17.17,0,0,1,.13-.1h0a1.18,1.18,0,0,1,.53-.43h0a.14.14,0,0,1,.12-.11v0c.06-.13.2-.16.29-.24h0a.38.38,0,0,1,.12-.1h0c0-.05.06-.1.12-.11v0a1.9,1.9,0,0,1,.41-.34h0a.22.22,0,0,1,.12-.11h0c0-.05.06-.1.13-.1h0a1.33,1.33,0,0,1,.41-.33h0a.17.17,0,0,1,.12-.1h0a1.86,1.86,0,0,1,.41-.33h0a.32.32,0,0,1,.13-.1h0c0-.05.06-.1.13-.1h0a1.09,1.09,0,0,1,.41-.33h0a.17.17,0,0,1,.12-.1h0A1.61,1.61,0,0,1,18,23h0a.32.32,0,0,1,.13-.1h0c0-.06.06-.1.13-.1h0a.8.8,0,0,1,.52-.43h0a1.61,1.61,0,0,1,.41-.33h0a.17.17,0,0,1,.12-.1h0a2.51,2.51,0,0,1,.4-.33h0a.38.38,0,0,1,.12-.1h0c0-.05.06-.1.12-.11v0a1.69,1.69,0,0,1,.41-.34h0a.38.38,0,0,1,.12-.1h0a.22.22,0,0,1,.12-.11h0a.13.13,0,0,1,.12-.1h0a1.61,1.61,0,0,1,.4-.34h0a.35.35,0,0,1,.11-.1h0a.29.29,0,0,1,.12-.1h0a.22.22,0,0,1,.12-.11h0a.2.2,0,0,1,.11-.11h0a.19.19,0,0,1,.12-.11h0a.13.13,0,0,1,.12-.11v0l1-1.05h0a.11.11,0,0,1,.11-.12h0a.12.12,0,0,1,.11-.11h0a.14.14,0,0,1,.11-.12h0a.15.15,0,0,1,.11-.12v0a.19.19,0,0,1,.11-.12h0a.29.29,0,0,1,.1-.12h0a1.67,1.67,0,0,1,.12-.16c.08-.07.11-.19.22-.24h0c0-.07,0-.1.11-.12h0a.17.17,0,0,1,.1-.12h0a.31.31,0,0,1,.11-.12h0l.1-.11h0c.09-.09.12-.22.23-.3h0a.38.38,0,0,1,.1-.12h0c.09-.1.12-.23.23-.31h0a.38.38,0,0,1,.1-.12h0c.08-.1.11-.23.23-.3h0A.27.27,0,0,1,25,16.1S25,16,25,16a.1.1,0,0,1,0-.09l.06-.08,0,0a.16.16,0,0,0,.07-.13.12.12,0,0,1,0-.08l.07-.08,0,0a.2.2,0,0,0,.06-.13.19.19,0,0,1,0-.09l.08-.08,0,0s.05-.1.1-.12h0a1.41,1.41,0,0,1,.19-.34h0c.06-.06,0-.16.12-.21h0c0-.06,0-.17.12-.21h0a.23.23,0,0,1,.07-.15c.05,0,.06-.13.12-.18h0c.05-.06,0-.17.11-.21h0c0-.06,0-.16.11-.21h0c0-.07,0-.17.11-.22h0c.05-.07,0-.17.11-.21h0c0-.06,0-.16.1-.21h0c.05-.06,0-.16.1-.21h0c0-.06,0-.15.1-.21h0c.1-.08,0-.24.13-.3h0c0-.08,0-.17.1-.23h0c.05-.06,0-.16.1-.22h0c.1-.08,0-.23.11-.3h0c.05-.06,0-.15.09-.21s0,0,0-.06a.8.8,0,0,1,.09-.26h0c.09-.09,0-.23.11-.31h0c.09-.09,0-.23.11-.32h0c.09-.09,0-.23.1-.32h0c.09-.09,0-.23.1-.32l0,0v0c.06-.11,0-.25.09-.35h0c.11-.12,0-.3.11-.42h0c.1-.12,0-.3.1-.42l0,0v0a1,1,0,0,0,0-.36.2.2,0,0,1,0-.13c.13-.14,0-.35.11-.49s0,0,0-.07,0-.38.09-.55a.2.2,0,0,0,0-.17c.1-.24,0-.52.08-.76a.59.59,0,0,0,0-.37,15.87,15.87,0,0,0,0-2.58.36.36,0,0,0,0-.27c-.13-.27,0-.57-.1-.85a.05.05,0,0,0,0-.08c-.12-.2,0-.44-.09-.64a.05.05,0,0,0,0-.08c-.11-.17,0-.38-.09-.55a0,0,0,0,0,0-.07.24.24,0,0,1,0-.2.12.12,0,0,1,.07-.11v0c.09-.11.19-.09.3,0h0a.38.38,0,0,1,.11.11h0c.05,0,.09.07.1.13h0c.1,0,.08.14.14.19h0s.08.07.09.13h0c.08,0,.08.12.14.17a.35.35,0,0,1,.07.15h0c.1,0,.08.14.12.21h0c.09,0,.07.15.12.21h0c.07.06.06.15.1.22h0c.11.06,0,.21.13.28S29.89,2,30,2l.06.11a2.1,2.1,0,0,0,.06.24.49.49,0,0,1,0,.12.57.57,0,0,0,0,.29h0a.11.11,0,0,1,.06.11,1,1,0,0,0,0,.33s0,0,0,.07,0,.24.09.35,0,0,0,.06,0,.31.1.45a0,0,0,0,0,0,.07c.1.14,0,.31.09.45s0,0,0,.07,0,.37.1.54a.05.05,0,0,0,0,.08c.12.2,0,.44.09.64a.05.05,0,0,0,0,.08c.12.25,0,.52.09.77a.36.36,0,0,0,0,.27c.12.49,0,1,.08,1.49a1.23,1.23,0,0,0,0,.54c-.12.53.05,1.07-.09,1.6a.33.33,0,0,0,0,.26c-.1.21,0,.46-.09.67a.05.05,0,0,0,0,.08c-.12.2,0,.44-.1.64,0,0,0,0,0,.07s0,.32-.09.45l0,0,0,0c-.06.11,0,.25-.09.36a.06.06,0,0,0,0,.08c-.1.13,0,.31-.1.43h0c-.11.12,0,.3-.12.42h0c-.08.09,0,.23-.1.32h0c-.09.09,0,.23-.1.32l0,0v0a.75.75,0,0,1-.09.25l0,0v0a.58.58,0,0,1-.09.26h0c-.09.08,0,.23-.11.31h0c0,.07,0,.16-.09.22s0,0,0,.06,0,.18-.1.25h0c0,.07,0,.16-.09.22h0c-.1.07,0,.24-.13.3h0c0,.07,0,.17-.11.22h0c0,.07,0,.17-.1.22h0c-.05.07,0,.16-.11.22h0c-.05.06,0,.16-.11.21h0c-.06.06,0,.16-.12.21h0c-.05.07,0,.17-.11.22h0c0,.06,0,.17-.11.21h0a1.57,1.57,0,0,1-.19.33h0c-.06,0,0,.16-.11.2h0c-.05.06,0,.17-.12.2h0a.24.24,0,0,1-.09.13h0c-.06.05,0,.16-.12.2h0a1.18,1.18,0,0,1-.21.32h0a1.18,1.18,0,0,1-.21.32h0a1.34,1.34,0,0,1-.22.31h0a.54.54,0,0,1-.09.12h0c-.06.05,0,.17-.13.19h0a.18.18,0,0,1-.09.13h0c-.07.11-.11.24-.23.31h0a.17.17,0,0,1-.1.12h0a.38.38,0,0,1-.1.12h0c-.09.09-.12.23-.23.3h0a.17.17,0,0,1-.1.12h0a1.27,1.27,0,0,1-.1.12h0a2.18,2.18,0,0,1-.34.4h0a.15.15,0,0,1-.11.12h0a.2.2,0,0,1-.11.11h0a.25.25,0,0,1-.11.12h0a.58.58,0,0,1-.1.12h0l-.1.11h0l-.1.11h0a.52.52,0,0,0-.11.1h0a3.56,3.56,0,0,1-.72.73h0a.47.47,0,0,0-.1.1h0l-.1.1h0l-.11.1h0L24,24h0l-.11.11h0a.29.29,0,0,1-.11.11h0a.29.29,0,0,1-.11.11h0a.22.22,0,0,1-.11.1h0a.19.19,0,0,1-.12.11h0a.2.2,0,0,1-.11.11h0a.15.15,0,0,1-.12.11h0a.13.13,0,0,1-.12.11h0a.12.12,0,0,1-.11.11h0c-.22.23-.45.44-.68.67l-.08.09a.86.86,0,0,1-.07.1l-.05.05a.31.31,0,0,1-.09.07l-.05,0L22,26h0a.57.57,0,0,1-.11.11h0a.38.38,0,0,1-.11.11h0a.25.25,0,0,1-.12.11h0a.2.2,0,0,1-.11.11h0a.23.23,0,0,1-.12.12h0a.2.2,0,0,1-.11.11h0a.19.19,0,0,1-.12.11h0a.14.14,0,0,1-.12.11h0a.13.13,0,0,1-.11.11h0a.11.11,0,0,1-.12.11h0l-.87.87a.38.38,0,0,0-.09.09l-.07.11,0,0-.08.08-.05,0a.22.22,0,0,1-.09.07l-.05,0a.47.47,0,0,0-.09.06h0a.57.57,0,0,1-.11.11h0a.2.2,0,0,1-.11.11h0a.22.22,0,0,1-.12.11h0a.22.22,0,0,1-.11.12h0a.19.19,0,0,1-.12.11h0a.17.17,0,0,1-.11.11h0a.15.15,0,0,1-.12.11h0a.13.13,0,0,1-.12.11h0c0,.07-.05.11-.12.11h0a13.4,13.4,0,0,1-1,1h0l-.1.1h0l-.11.1h0a.36.36,0,0,1-.11.1h0a.57.57,0,0,1-.11.11h0a.29.29,0,0,1-.11.11h0a.29.29,0,0,1-.11.11h0a.29.29,0,0,1-.11.11h0a.29.29,0,0,1-.11.11h0a.29.29,0,0,1-.11.11h0a.2.2,0,0,1-.11.11h0a.29.29,0,0,1-.11.11h0a.25.25,0,0,1-.12.11h0a.2.2,0,0,1-.11.11h0a.23.23,0,0,1-.12.12h0a.2.2,0,0,1-.11.11h0a.2.2,0,0,1-.11.11h0a.2.2,0,0,1-.12.12h0a.2.2,0,0,1-.11.11h0a.17.17,0,0,1-.12.11h0a.14.14,0,0,1-.11.11h0a.18.18,0,0,1-.12.12h0a.14.14,0,0,1-.11.11h0a.14.14,0,0,1-.12.11h0a.18.18,0,0,1-.12.12h0a.13.13,0,0,1-.11.11h0a.14.14,0,0,1-.12.11h0a.14.14,0,0,1-.11.12v0a.13.13,0,0,1-.12.12h0a.15.15,0,0,1-.12.11h0a.14.14,0,0,1-.11.12h0a.13.13,0,0,1-.11.11h0a.18.18,0,0,1-.12.12h0a.14.14,0,0,1-.11.11h0a.19.19,0,0,1-.11.12h0a.2.2,0,0,1-.11.11h0a.22.22,0,0,1-.11.12h0a.2.2,0,0,1-.11.11h0a.25.25,0,0,1-.11.12h0a.29.29,0,0,1-.11.11h0a.43.43,0,0,1-.11.12h0a.35.35,0,0,1-.1.11h0l-.1.11h0a7.38,7.38,0,0,1-.76.82v0a.11.11,0,0,1-.11.12h0a.19.19,0,0,1-.11.12h0a.22.22,0,0,1-.11.12h0a.32.32,0,0,1-.11.12h0l-.11.11h0a2.68,2.68,0,0,1-.45.5h0c0,.07,0,.1-.11.12h0a.15.15,0,0,1-.1.12h0a.25.25,0,0,1-.11.12h0a1.27,1.27,0,0,1-.1.12h0c-.09.1-.11.24-.24.3v0a.14.14,0,0,1-.1.13h0a.25.25,0,0,1-.11.12h0a1.27,1.27,0,0,1-.1.12h0c-.09.09-.11.23-.24.29h0a.13.13,0,0,1-.1.12h0a.22.22,0,0,1-.11.12h0a.38.38,0,0,1-.1.12h0c-.07.05,0,.17-.14.19l0,0a.14.14,0,0,1-.1.13h0a.29.29,0,0,1-.1.12h0c-.08.1-.12.23-.23.3h0a.24.24,0,0,1-.09.13h0c-.08.1-.12.23-.22.31h0s-.06.08-.09.12h0c-.07,0,0,.17-.13.2H9a.22.22,0,0,1-.09.12h0c-.06,0,0,.17-.13.2v0a.21.21,0,0,1-.09.13h0c-.06.05,0,.17-.13.2v0a.18.18,0,0,1-.09.13h0c-.07.06,0,.16-.13.2h0a.28.28,0,0,1-.09.13h0c-.07,0,0,.15-.12.2h0c-.05.06,0,.17-.12.21h0a1,1,0,0,1-.19.33h0c-.06.05,0,.16-.11.2h0c0,.06,0,.16-.11.21h0c0,.07,0,.17-.1.22h0c0,.07,0,.16-.11.21h0c0,.07,0,.17-.11.22h0c0,.07,0,.17-.11.22h0c0,.07,0,.16-.1.22h0c-.06.07,0,.16-.1.22H7c-.11.08,0,.23-.12.31h0c-.08.09,0,.24-.11.31h0c0,.07,0,.16-.08.23s0,0,0,.06A1.21,1.21,0,0,1,6.63,44.09Z"/><path class="cls-1" d="M29.51,56.56s0,0,0,.07,0,.23.09.34,0,.05,0,.07,0,.31.09.44a.06.06,0,0,0,0,.08c.13.35,0,.73.09,1.08,0,0,0,0,0,.08l0,0c-.11.29,0,.6-.08.88a.14.14,0,0,0,0,.16c-.06.11,0,.25-.09.36a.06.06,0,0,0,0,.08c-.08.1,0,.23-.09.33s0,0,0,.06a.68.68,0,0,1-.09.25,0,0,0,0,0,0,.07c0,.08,0,.17-.1.24h0c-.09.08,0,.24-.12.3h0c0,.08,0,.17-.1.22h0c-.05.07,0,.17-.11.22h0c0,.07,0,.17-.11.22h0c0,.07,0,.17-.12.21h0a.35.35,0,0,1-.08.13h0c-.07,0-.05.15-.12.2h0c-.06.06,0,.16-.13.2h0a.35.35,0,0,1-.08.13h0c-.07,0-.05.16-.13.19h0a.6.6,0,0,1-.09.13h0c-.07.05,0,.16-.13.19h0c0,.06-.06.09-.1.12h0c-.08.1-.12.23-.23.31h0a.38.38,0,0,1-.1.12h0c-.09.09-.11.23-.24.29h0c0,.07-.05.1-.1.12h0a.19.19,0,0,1-.11.12h0l-.1.11h0a3.47,3.47,0,0,1-.55.6h0a.11.11,0,0,1-.11.12h0a.15.15,0,0,1-.11.12v0a.13.13,0,0,1-.11.12h0a.18.18,0,0,1-.12.12v0a.15.15,0,0,1-.11.12h0a.14.14,0,0,1-.12.11h0a.15.15,0,0,1-.12.11h0a.11.11,0,0,1-.12.11h0a4.52,4.52,0,0,1-.61.55h0a.52.52,0,0,1-.11.1h0a.23.23,0,0,1-.11.11h0a.22.22,0,0,1-.12.11h0a.15.15,0,0,1-.12.11v0c-.06.13-.21.15-.29.24h0a.54.54,0,0,1-.12.09h0a.29.29,0,0,1-.12.1h0c-.07.11-.21.14-.3.23h0a1.27,1.27,0,0,1-.12.1h0a.19.19,0,0,1-.12.1h0c-.07.11-.21.14-.3.23h0a.38.38,0,0,1-.12.1h0c-.08.1-.21.14-.31.22h0a.22.22,0,0,1-.12.09h0a1,1,0,0,1-.31.23h0c0,.05-.07.09-.13.1h0c0,.09-.14.07-.19.13h0a.24.24,0,0,1-.13.09h0c0,.09-.15.06-.2.13h0s-.07.08-.13.09h0c0,.09-.15.06-.2.12h0a.24.24,0,0,1-.13.09h0c0,.09-.14.07-.2.13h0a.24.24,0,0,1-.13.09h0c0,.09-.14.07-.2.13h0a.18.18,0,0,1-.13.09l0,0c-.07.12-.17.1-.26,0s-.09-.13,0-.2h0a.19.19,0,0,1,.09-.12h0a1.34,1.34,0,0,1,.22-.31h0A.38.38,0,0,1,21,69c.05,0,.06-.14.14-.16h0a.18.18,0,0,1,.09-.13h0a1.16,1.16,0,0,1,.22-.31h0a.32.32,0,0,1,.1-.13h0c.06,0,0-.16.13-.19h0c0-.06,0-.09.09-.13h0c0-.06,0-.17.12-.2h0a.24.24,0,0,1,.09-.13h0c.06-.06,0-.17.13-.2h0a.24.24,0,0,1,.09-.13h0c.06-.05,0-.16.12-.2h0a1,1,0,0,1,.19-.32h0c.06-.06,0-.17.12-.21h0a1.29,1.29,0,0,1,.19-.32h0c.06-.06,0-.16.11-.21h0c.05-.07,0-.17.11-.21h0c0-.06,0-.16.11-.21h0c0-.07,0-.17.12-.22v0c0-.08,0-.18.11-.22h0c0-.07,0-.17.11-.22h0c0-.07,0-.17.1-.22h0c.05-.06,0-.15.09-.21s0,0,0-.07a.7.7,0,0,1,.09-.24s0,0,0-.06,0-.26.1-.36h0c.12-.16,0-.37.1-.53a.06.06,0,0,0,0-.08,4.05,4.05,0,0,0,0-1.3.17.17,0,0,0,0-.17c-.09-.14,0-.31-.08-.45s0-.05,0-.07,0-.23-.09-.32h0c-.11-.09,0-.23-.1-.32h0c-.11-.08,0-.23-.12-.31h0c-.06-.06,0-.15-.09-.22h0c-.07-.06-.06-.15-.1-.22h0c-.09,0-.07-.15-.12-.22h0c-.08,0-.06-.15-.11-.21h0c-.07-.05-.05-.15-.11-.21h0s-.05-.1-.09-.14l-.07-.08,0-.11h0c-.1,0-.08-.14-.13-.21h0c-.05,0-.06-.09-.1-.14l-.07-.08s0-.07,0-.11h0c-.09,0-.06-.14-.12-.2h0s-.09-.06-.09-.13v0c-.1,0-.07-.14-.13-.2h0a.18.18,0,0,1-.09-.13v0c-.09,0-.07-.15-.13-.2h0a.22.22,0,0,1-.09-.12h0c-.06,0-.07-.08-.1-.13l-.08-.08a1,1,0,0,0,0-.1h0a1,1,0,0,1-.22-.31h0s-.09-.07-.09-.13h0c-.1,0-.07-.14-.14-.19h0a.32.32,0,0,1-.1-.13h0a1,1,0,0,1-.22-.31h0c-.05,0-.1-.06-.1-.13h0c-.1,0-.07-.14-.13-.19h0a.22.22,0,0,1-.09-.12h0c-.06,0-.07-.09-.11-.13l-.07-.08a.31.31,0,0,0-.05-.1h0a1.34,1.34,0,0,1-.22-.31h0a.17.17,0,0,1-.1-.12h0c-.09,0-.06-.14-.13-.19h0a.24.24,0,0,1-.09-.13h0a.84.84,0,0,1-.22-.31h0a.15.15,0,0,1-.09-.13h0c-.1,0-.07-.14-.14-.19h0s-.08-.07-.09-.12h0c-.09,0-.06-.15-.13-.19h0a.54.54,0,0,1-.09-.12h0A.85.85,0,0,1,19,53.5h0a1,1,0,0,1-.21-.32h0c-.08,0-.05-.15-.12-.2h0s-.08-.07-.08-.13h0c-.1,0-.08-.14-.12-.21h0c-.08,0-.06-.15-.12-.2h0a1,1,0,0,1-.18-.34v0c-.11,0-.09-.15-.12-.22h0c-.1,0-.08-.14-.12-.21h0c-.09,0-.07-.15-.11-.22h0c-.08,0-.07-.15-.1-.22h0c-.14-.06,0-.23-.14-.3h0c-.05-.06,0-.15-.09-.21h0c-.07-.06-.06-.15-.1-.22h0c-.12-.07,0-.23-.12-.31h0c-.06-.06-.06-.15-.09-.22h0c-.12-.07,0-.23-.11-.31h0c-.11-.08,0-.22-.11-.32h0c-.11-.09,0-.24-.11-.34s0-.05,0-.07,0-.23-.09-.32h0c-.13-.12,0-.3-.11-.42h0c-.12-.13,0-.31-.1-.45s0,0,0-.06,0-.38-.1-.54a.05.05,0,0,0,0-.08c-.11-.21,0-.45-.09-.66a.45.45,0,0,0,0-.28,7.72,7.72,0,0,1,0-1.86v-.18c.11-.21,0-.44.09-.65a.18.18,0,0,0,0-.16c.08-.14,0-.32.09-.46l0,0,0,0c.06-.11,0-.25.09-.35a.06.06,0,0,0,0-.08c.06-.1,0-.24.09-.34l0,0v0a.8.8,0,0,1,.09-.26,0,0,0,0,0,0-.07c0-.08,0-.17.09-.24s0,0,0-.06a.68.68,0,0,1,.09-.25h0c.1-.08,0-.24.13-.31v0c0-.08,0-.17.09-.23h0c.05-.06,0-.16.09-.22s0,0,0-.05,0-.2.12-.25v0c0-.08,0-.18.12-.22h0c0-.08,0-.18.11-.22h0c0-.08,0-.18.11-.22h0a.84.84,0,0,1,.19-.33h0c.06,0,0-.16.12-.2h0c0-.07,0-.18.12-.21h0c0-.06.05-.09.08-.13h0c.07-.05,0-.16.13-.2v0a.24.24,0,0,1,.09-.13h0c.06,0,0-.16.13-.2h0c0-.05.05-.08.09-.12h0c.06,0,0-.16.13-.2v0a.24.24,0,0,1,.09-.13h0c.08-.1.11-.23.23-.3h0a.19.19,0,0,1,.09-.12h0c.07-.1.11-.23.23-.3h0a.15.15,0,0,1,.1-.12h0a.19.19,0,0,1,.1-.12h0a1.27,1.27,0,0,1,.1-.12h0a2.18,2.18,0,0,1,.34-.4h0a.13.13,0,0,1,.11-.11h0a.19.19,0,0,1,.11-.12h0a.25.25,0,0,1,.11-.12h0a.29.29,0,0,1,.11-.11h0a.57.57,0,0,1,.11-.11h0a.35.35,0,0,1,.1-.11h0l.1-.11h0l.11-.11h0l.11-.1h0a.35.35,0,0,1,.11-.1h0l.11-.11h0a.29.29,0,0,1,.11-.11h0a.29.29,0,0,1,.11-.11h0a.22.22,0,0,1,.11-.1h0a.17.17,0,0,1,.12-.1h0a.15.15,0,0,1,.12-.11h0a2.57,2.57,0,0,1,.39-.34h0l.11-.09h0a.5.5,0,0,1,.11-.1h0a.24.24,0,0,1,.12-.1h0a.14.14,0,0,1,.12-.11v0c.06-.13.2-.15.29-.24h0a.38.38,0,0,1,.12-.1h0a.29.29,0,0,1,.12-.1v0c.07-.12.21-.15.3-.24h0a.54.54,0,0,1,.12-.09h0a.16.16,0,0,1,.13-.11l0,0c.07-.13.2-.16.31-.24h0a.19.19,0,0,1,.13-.1h0a.87.87,0,0,1,.32-.22h0a.14.14,0,0,1,.13-.09h0c0-.1.14-.07.2-.14h0s.07-.08.13-.09h0a.84.84,0,0,1,.31-.22h0a1.36,1.36,0,0,1,.32-.21h0a1.4,1.4,0,0,1,.32-.22h0a1.6,1.6,0,0,1,.32-.21h0a1.18,1.18,0,0,1,.32-.21h0c0-.08.15-.06.2-.12h0a.24.24,0,0,1,.13-.09h0c0-.09.14-.07.2-.12h0a.94.94,0,0,1,.33-.2h0c0-.09.15-.07.2-.13h0c0-.07.15-.05.2-.12h0a.35.35,0,0,1,.13-.08h0c0-.1.14-.07.21-.12h0c.05-.07.15-.05.21-.11h0a1.61,1.61,0,0,1,.33-.2h0c.05-.09.15-.07.22-.11h0c0-.08.15-.06.21-.11h0c.05-.07.15-.05.21-.11h0c0-.06.15,0,.2-.11h0s.07-.08.14-.08h0c0-.1.14-.08.22-.11h0c0-.09.14-.07.21-.11h0c.05-.09.15-.08.22-.11h0c0-.09.14-.07.21-.11h0c.05-.09.15-.07.22-.11h0c.05-.08.15-.07.22-.11h0c.05-.09.14-.07.21-.11h0c.05-.08.15-.07.22-.1h0c.05-.09.15-.07.22-.11h0c0-.09.15-.07.22-.11h0c0-.1.14-.08.22-.11h0c.05-.13.2-.05.27-.14s.17,0,.24-.1h0c.05-.07.15-.05.21-.1h0c.06-.07.16-.06.22-.1h0c.06-.08.15-.07.23-.1h0c0-.09.14-.09.22-.14l.12,0a.26.26,0,0,0,.17-.05h0c.06-.07.15-.05.22-.1h0c.05-.08.15-.07.22-.1h0c.06-.14.23,0,.3-.13h0c.06-.07.15,0,.22-.1h0c.06-.07.15-.06.23-.1h0c.07-.13.23,0,.31-.12h0c.06-.07.15-.06.22-.1h0c.07-.13.23,0,.31-.12h0c.07-.06.16-.05.23-.1h0c.07-.12.22,0,.3-.12h0c.06-.06.15,0,.23-.09h0c.07-.13.22,0,.31-.12h0c.06-.06.14-.07.19-.13a.27.27,0,0,1,.12,0,.36.36,0,0,0,.22,0h0c.08-.12.23,0,.31-.12h0a.75.75,0,0,1,.25-.09h0l0,0c.06-.05.15,0,.22-.08h0c.08-.12.23,0,.32-.11h0c.08-.11.23,0,.31-.11h0c.08-.1.23,0,.31-.11h0c.08-.09.23,0,.31-.1h0a.49.49,0,0,1,.23-.08h0a.2.2,0,0,1,.08-.08l.23-.09h.11a.64.64,0,0,0,.24,0h0l0,0c.09-.09.23,0,.32-.1h0c.09-.1.23,0,.32-.11h0c.08-.1.22,0,.32-.11h0c.08-.11.23,0,.32-.11h0c.1-.11.24,0,.35-.11h0l0,0c.09-.09.23,0,.32-.1h0c.1-.09.24,0,.34-.1a.06.06,0,0,0,.08,0c.11-.08.23,0,.35,0a.14.14,0,0,1,.1.08.23.23,0,0,1,0,.14l-.12.07a.31.31,0,0,0-.19.06h0s-.07.09-.13.09v0c0,.11-.14.08-.2.13h0c0,.07-.15.05-.19.12h0s-.07.07-.12.08h0c0,.09-.15.07-.21.13h0s-.07.08-.13.08h0c0,.1-.14.08-.2.13h0a1,1,0,0,1-.32.2h0c0,.08-.15.06-.2.12h0a.24.24,0,0,1-.13.09h0c0,.09-.15.06-.2.12h0s-.07.09-.13.09h0c0,.1-.14.07-.2.13h0a1,1,0,0,1-.32.21h0c0,.08-.15.06-.2.13h0a.29.29,0,0,1-.13.08h0c0,.09-.15.07-.2.13h0a.24.24,0,0,1-.13.09v0c0,.1-.14.08-.2.13h0a1.42,1.42,0,0,1-.33.21h0a.85.85,0,0,1-.32.21h0c0,.09-.15.06-.2.13h0a.54.54,0,0,1-.12.09h0c0,.08-.15.06-.2.13h0a.54.54,0,0,1-.12.09h0c0,.08-.15.06-.2.12h0a.24.24,0,0,1-.13.09h0c0,.09-.14.06-.19.13h0s-.07.08-.13.09h0c0,.09-.14.06-.19.13h0a.43.43,0,0,1-.13.09h0c0,.08-.15.06-.2.13h0a.43.43,0,0,1-.13.09h0a1,1,0,0,1-.31.21h0a1.11,1.11,0,0,1-.32.21h0a.15.15,0,0,1-.13.09h0c0,.1-.14.08-.2.14h0s-.07.09-.13.1v0c0,.1-.14.07-.19.14h0a.54.54,0,0,1-.12.09h0a1.4,1.4,0,0,1-.32.22h0s-.06.09-.13.09h0c0,.1-.14.07-.19.13h0a.29.29,0,0,1-.12.1v0a1,1,0,0,1-.31.23h0a.24.24,0,0,1-.13.09h0c0,.09-.14.07-.19.13h0a.54.54,0,0,1-.12.09h0c0,.05-.06.1-.13.1h0c0,.1-.14.07-.19.13h0a.29.29,0,0,1-.12.1h0c-.08.1-.21.14-.3.22h0a.38.38,0,0,1-.12.1h0c0,.05-.06.1-.13.1h0c0,.1-.14.07-.18.14h0a.54.54,0,0,1-.12.09h0a.18.18,0,0,1-.13.09h0c-.07.12-.2.16-.3.23h0s-.06.09-.12.1h0c-.07.11-.21.14-.3.23h0l-.11.1h0a.17.17,0,0,1-.12.1h0c-.07.12-.2.15-.3.23h0a.35.35,0,0,1-.11.1h0a.27.27,0,0,1-.13.1h0c-.06.11-.2.14-.29.23h0a1.27,1.27,0,0,1-.12.1h0a.25.25,0,0,1-.12.11h0a.15.15,0,0,1-.12.1h0a2.18,2.18,0,0,1-.4.34h0l-.11.1h0a.22.22,0,0,1-.12.11h0a.14.14,0,0,1-.12.1h0a3,3,0,0,1-.5.44h0a.57.57,0,0,1-.11.11h0a.63.63,0,0,1-.12.11h0a.23.23,0,0,1-.11.11h0a.2.2,0,0,1-.11.11h0a.15.15,0,0,1-.12.11h0a.14.14,0,0,1-.12.11h0c-.49.48-1,1-1.46,1.46h0a.15.15,0,0,1-.11.12h0c0,.06-.05.09-.11.12v0a.19.19,0,0,1-.11.12h0a.29.29,0,0,1-.1.12h0a.36.36,0,0,1-.1.11h0a1.89,1.89,0,0,1-.34.4h0a.14.14,0,0,1-.1.12h0a.22.22,0,0,1-.11.12h0c-.08.1-.11.24-.24.3h0a.15.15,0,0,1-.11.12h0a.38.38,0,0,1-.09.12h0c-.09.1-.12.23-.23.31v0c0,.06-.06.09-.09.13h0c-.07,0,0,.16-.13.19h0a.24.24,0,0,1-.09.13h0c-.06,0,0,.16-.13.19h0a.24.24,0,0,1-.09.13h0c-.06.06,0,.17-.13.21v0c0,.06-.05.09-.08.13h0c-.07.06-.05.16-.12.2h0c0,.06,0,.17-.11.21h0c0,.07,0,.17-.12.21h0c0,.08,0,.18-.11.22h0c0,.07,0,.17-.12.21h0c0,.06-.05.09-.08.13a0,0,0,0,0,0,.06c0,.09,0,.19-.1.25h0c0,.07,0,.16-.09.22h0c-.1.08,0,.23-.11.31h0c-.09.09,0,.24-.11.32h0c-.11.13,0,.31-.11.42h0c-.11.16,0,.36-.09.52a.06.06,0,0,0,0,.09,4,4,0,0,0,0,1.29s0,.05,0,.07c.12.17,0,.38.1.56a0,0,0,0,0,0,.07c.08.1,0,.23.09.33a.05.05,0,0,0,0,.08c0,.07,0,.15.08.22h0c.13.08,0,.23.12.32h0c.07.06.06.15.09.23h0c.14.05,0,.22.14.29h0c.05.06,0,.15.1.21h0c.07,0,0,.15.11.21h0c.07.06.05.16.11.21h0c.07,0,.05.15.11.21h0c.06,0,0,.15.1.2h0a.35.35,0,0,1,.08.13h0c.1,0,.08.14.13.21h0c.08,0,.06.15.12.21h0c.06,0,0,.15.11.2h0s.08.07.09.12h0c.09,0,.06.15.12.2h0s.09.07.09.13h0c.1,0,.07.14.12.2h0a1.42,1.42,0,0,1,.21.33h0c.08,0,.05.15.13.19h0a.54.54,0,0,1,.09.12h0c.08,0,.05.15.12.2h0s.08.07.09.12h0c.09,0,.06.15.13.2h0s.08.07.09.13l0,0c.1,0,.07.15.13.2h0a.24.24,0,0,1,.09.13h0c.09,0,.07.14.13.19h0a.24.24,0,0,1,.09.13h0c.09,0,.07.14.13.2h0s.09.07.09.13h0c.1,0,.07.14.13.2h0a1.16,1.16,0,0,1,.2.32h0c.08,0,0,.15.12.2h0s.08.07.09.13v0c.09,0,.06.15.12.21h0s.09.07.09.13h0c.1,0,.07.14.12.21h0c.07,0,0,.15.11.2h0c.06,0,0,.15.11.2h0c0,.05.07.08.08.13h0c.09,0,.07.15.12.21h0c.08.05.06.15.12.21h0s.08.07.08.13v0c.1,0,.08.14.12.22h0c.09,0,.08.14.11.21h0c.1,0,.08.15.12.22h0c.09,0,.07.15.11.22h0c.09,0,.08.14.11.21h0c.13.07,0,.23.13.3h0c.05.07,0,.16.09.22h0c.07,0,.06.15.1.22h0c.09.06.08.16.11.25v0l0,0c.06.06,0,.15.09.23v0c.12.08,0,.23.11.32h0c.11.08,0,.23.11.32h0c.1.09,0,.23.1.32h0C29.51,56.31,29.45,56.45,29.51,56.56Z"/></g></g></svg>