<svg xmlns="http://www.w3.org/2000/svg" viewBox="0 0 542 141.91"><defs><style>.cls-1{fill:#fff;}</style></defs><title>Logo</title><g id="Camada_2" data-name="Camada 2"><g id="Camada_1-2" data-name="Camada 1"><polygon class="cls-1" points="74.38 1.92 66.98 34.64 50.94 4.03 46.71 4.03 31.02 34.64 23.62 1.92 0 1.92 20.27 93.08 25.2 93.08 49 48.27 72.8 93.08 77.73 93.08 98 1.92 74.38 1.92"/><path class="cls-1" d="M123.38,9.79l-25,63.14h-8.1L86,83.2h8.46l-2.82,7h22.21l2.46-7H136.6l2.47,7h22.21L129.55,9.79Zm-3.7,63.14,6.88-19.48,6.52,19.48Z"/><polygon class="cls-1" points="189.31 51.43 209.93 90.97 230.2 88 210.99 47.69 229.14 11.52 207.46 11.52 189.31 44.81 189.31 11.52 167.98 11.52 167.98 90.2 189.31 90.2 189.31 51.43"/><path class="cls-1" d="M276.2,9.79H270L245,72.93h-8.1L232.66,83.2h8.47l-2.82,7h22.2l2.47-7h20.27l2.47,7h22.21Zm-9.87,63.14,6.88-19.48,6.52,19.48Z"/><polygon class="cls-1" points="357.98 49.8 320.09 9.79 314.63 9.79 314.63 90.2 335.95 90.2 335.95 51.91 373.85 91.93 379.31 91.93 379.31 11.52 357.98 11.52 357.98 49.8"/><path class="cls-1" d="M412.8,11.52H391.47V90.2H412.8q19.4,0,28.91-8.73,10.4-9.6,10.4-30.61Q452.11,11.52,412.8,11.52Zm0,68.41V21.78q18.15,0,18.16,29.08T412.8,79.93Z"/><path class="cls-1" d="M506.4,0h-7l-28,70.82h-9.16l-4.59,11.51h9.34l-3.17,7.87h25l2.64-7.87h22.92L517,90.2h25ZM495.29,70.82l7.58-21.88,7.4,21.88Z"/><path class="cls-1" d="M130.08,108.59l-11.3,32.68h5.11l2.68-7.79h13l2.88,7.79h7.43l-11.51-32.68Zm-1.77,20.13,4.78-14,5,14Z"/><polygon class="cls-1" points="188.97 134.54 188.97 134.56 188.99 134.54 188.97 134.54"/><path class="cls-1" d="M180.41,112.66a15.07,15.07,0,0,1,5.65,1,18.49,18.49,0,0,1,3.26,1.57l-1.41-5.53c-.71-.21-1.88-.48-3.53-.79a29.45,29.45,0,0,0-5.58-.48,16.29,16.29,0,0,0-8.25,1.94,10.55,10.55,0,0,0-4.41,5.22,24.77,24.77,0,0,0-1.51,8.27q0,9.12,3.36,13.43t11.86,4.31a21.76,21.76,0,0,0,6.17-.92q2.52-.82,2.52-1.17l.43-4.9a6,6,0,0,1-1,.74,12.36,12.36,0,0,1-3.32,1.38,20.51,20.51,0,0,1-5.39.6,5.22,5.22,0,0,1-4.19-2.17,11,11,0,0,1-1.85-4.81,44.27,44.27,0,0,1-.42-6.49,18.18,18.18,0,0,1,1.55-8C175.34,113.73,177.38,112.66,180.41,112.66Z"/><path class="cls-1" d="M215.07,108.59l-11.3,32.68h5.12l2.67-7.79h13l2.88,7.79h7.43l-11.5-32.68Zm-1.77,20.13,4.78-14,5,14Z"/><path class="cls-1" d="M265.34,108.59H250.89v32.68H265.2a11.58,11.58,0,0,0,6.77-1.81,10.24,10.24,0,0,0,3.77-5.44,30.21,30.21,0,0,0,1.17-9.15q0-7.68-2.64-12T265.34,108.59Zm4,25.53c-1,2-2.9,3.08-5.72,3.08h-5.34V112.66h4.77a7.06,7.06,0,0,1,4.92,1.55,7.73,7.73,0,0,1,2.26,4.17,33.92,33.92,0,0,1,.6,6.49Q270.87,131,269.38,134.12Z"/><polygon class="cls-1" points="301.86 126.26 314.2 126.26 314.2 122.2 301.86 122.2 301.86 112.67 316.67 112.67 316.67 108.59 294.43 108.59 294.43 141.27 316.87 141.27 316.87 137.2 301.86 137.2 301.86 126.26"/><polygon class="cls-1" points="349.69 125.71 342.04 108.59 333.77 108.59 333.77 141.27 339.03 141.27 339.03 119.39 348.56 141.91 357.76 119.39 357.76 141.27 365.19 141.27 365.19 108.59 357.05 108.59 349.69 125.71"/><polygon class="cls-1" points="397.31 121.14 389.74 108.59 381.39 108.59 391.85 125.35 391.85 141.27 399.28 141.27 399.28 125.35 409.65 108.59 404.74 108.59 397.31 121.14"/></g></g></svg>