<svg xmlns="http://www.w3.org/2000/svg" viewBox="0 0 66.77 79.7"><defs><style>.cls-1{fill:#fff;}</style></defs><title>Ativo 57</title><g id="Camada_2" data-name="Camada 2"><g id="Camada_1-2" data-name="Camada 1"><path class="cls-1" d="M31.67,79.7l-2.42-.23a37.79,37.79,0,0,1-8-1.67,43.11,43.11,0,0,1-14.47-8A52.36,52.36,0,0,1,.19,63.22.83.83,0,0,1,0,62.48,38.14,38.14,0,0,1,4.38,49.56,32.29,32.29,0,0,1,16.73,37.1c.27-.15.4-.08.58.11a21.6,21.6,0,0,0,8.1,5.56,21.83,21.83,0,0,0,23.72-5.2c.61-.63.61-.63,1.35-.19A32.93,32.93,0,0,1,65.17,55.9a40.49,40.49,0,0,1,1.6,6.78.6.6,0,0,1-.13.43c-6.46,7.72-14.35,13.2-24.24,15.55a37.59,37.59,0,0,1-6.83,1,4,4,0,0,0-.48.07Z"/><path class="cls-1" d="M34.68,0c.74.1,1.48.18,2.21.32A19.52,19.52,0,0,1,50,8.92a19.4,19.4,0,0,1,3.27,12.65A19.85,19.85,0,0,1,38.54,39.1a19.26,19.26,0,0,1-19.81-5.8,18.52,18.52,0,0,1-5.19-14.49C14.13,10.71,18.28,5,25.61,1.59A17.71,17.71,0,0,1,31.77.07,2.82,2.82,0,0,0,32.08,0Z"/></g></g></svg>