<svg xmlns="http://www.w3.org/2000/svg" viewBox="0 0 32.23 28.43"><defs><style>.cls-1{fill:red;}</style></defs><title>Ativo 59</title><g id="Camada_2" data-name="Camada 2"><g id="Camada_1-2" data-name="Camada 1"><path class="cls-1" d="M0,28.43l1.71-1.9q.81-.87,2.76-3.12l6.25-7.24,2-2.41L9.86,9.56,3,0C4.52,0,6,0,7.34,0c1.1,0,2.37,0,3.8,0Q12.39,2.46,14,5.1c1.06,1.77,1.88,3.21,2.45,4.34,1-1.17,2.3-2.71,4-4.62S23.61,1.31,24.59,0c1.26,0,2.53,0,3.82,0,.83,0,2.1,0,3.82,0Q30.39,2.17,27,6t-6.39,7.5q3.16,4.8,10.53,14.94l-3.91,0c-1.32,0-2.73,0-4.25,0-.85-1.35-2-3-3.44-5S17,19.93,16.16,18.69q-1.31,1.64-3.87,4.5c-1.71,1.9-3.2,3.65-4.49,5.24L4,28.39Z"/></g></g></svg>